<?xml version="1.0" encoding="utf-8"?>
<!-- Generator: Adobe Illustrator 19.0.0, SVG Export Plug-In . SVG Version: 6.00 Build 0)  -->
<svg version="1.1" xmlns="http://www.w3.org/2000/svg" xmlns:xlink="http://www.w3.org/1999/xlink" x="0px" y="0px"
	 viewBox="0 0 119 111" style="enable-background:new 0 0 119 111;" xml:space="preserve">
<style type="text/css">
	.st0{display:none;}
	.st1{display:inline;fill:url(#SVGID_1_);}
	.st2{fill:#222221;}
</style>
<g id="BACKGROUND" class="st0">
	<radialGradient id="SVGID_1_" cx="83.6396" cy="184.9453" r="250" gradientUnits="userSpaceOnUse">
		<stop  offset="0" style="stop-color:#343140"/>
		<stop  offset="1" style="stop-color:#151124"/>
	</radialGradient>
	<rect x="-166.4" y="-65.1" class="st1" width="500" height="500"/>
</g>
<g id="Capa_4">
</g>
<g id="OBJECTS">
	<g id="XMLID_98_">
		<path id="XMLID_8_" class="st2" d="M50.9,82c-0.7-0.1-1.3-0.4-1.4-0.8c0-0.1-0.1-0.3-0.1-0.4c-0.2-0.5-0.2-0.8-0.1-1.2
			c0.2-0.5,0.1-0.5-0.1-0.3c-0.2,0.1-0.2,0,0.1-0.5c0.2-0.5,0.2-0.7,0.1-0.6c-0.1,0.1,0-0.1,0.1-0.2c0.1-0.2,0.1-0.4,0-0.5
			c-0.2-0.2,0-0.6,0.3-0.8c0.1-0.1,0.1-0.2,0-0.2c-0.1,0-0.1-0.1-0.1-0.2c0-0.1-0.1-0.2-0.2-0.3c-0.2-0.1-0.3-0.2-1-0.8
			c-0.5-0.6-0.7-0.8-0.8-1.2c0-0.2-0.2-0.5-0.3-0.6c-0.1-0.2-0.2-0.5-0.2-0.6c0-0.2-0.1-0.4-0.2-0.5c-0.2-0.2-0.2-0.8-0.2-1.4
			c0-0.3-0.1-0.7-0.1-1c-0.1-0.2-0.1-0.5-0.1-0.5c0,0,0-0.1-0.1-0.1c-0.1,0-0.1-0.2,0-0.3c0-0.2,0-0.5,0-0.7
			c-0.1-0.3-0.1-0.4,0.1-0.5c0.1-0.1,0.2-0.1,0.2,0.1c0,0.2,0,0.2,0.1,0.2c0.2,0,0.2-0.4,0.2-0.5C47,67.5,47,67.3,47,67.1
			c0.1-0.2,0-0.5,0-0.5c-0.1,0-0.1-0.2-0.1-0.2c0.1-0.2,0.1-0.2-0.1-0.2c-0.2,0.2-0.2,0.3,0,0.9c0.1,0.1,0,0.2-0.1,0.3
			c-0.2,0.2-0.4,0.2-0.3,0c0.1-0.1,0-0.3,0-0.5c-0.1-0.3-0.1-0.5,0.1-0.5c0.1-0.2,0.2-0.2,0.1-0.2c-0.1-0.1-0.1-0.2,0-0.4
			c0-0.2,0-0.3-0.1-0.3c-0.2,0-0.2-0.2-0.1-0.5c0.1-0.2,0-0.3-0.1-0.3c-0.1-0.1-0.1-0.2,0.1-0.8c0.2-0.5,0.2-0.6,0.3-0.6
			c0.1,0.1,0.2,0,0.2-0.2c0.1-0.1,0-0.2-0.2-0.1c-0.4,0.1-0.5-0.2-0.2-0.5c0.1-0.2,0.1-0.3,0-0.4c-0.1-0.1-0.1-0.3,0-0.5
			c0-0.2,0-0.3-0.1-0.4c0-0.1,0-0.3,0.1-0.5c0.1-0.2,0.1-0.4-0.1-0.5c-0.1,0-0.1-0.2,0-0.5c0.2-0.3,0.2-0.5,0.1-0.7
			c-0.2-0.1,0-1.1,0.2-1.2c0.2,0,0.3-0.6,0.2-0.6c-0.1-0.1-0.1,0-0.2,0.2c-0.2,0.5-0.2,0.3-0.2-0.2c0.1-0.2,0-0.6-0.1-0.8
			c-0.1-0.2-0.1-0.5,0.1-1.2c0.2-0.7,0.2-0.8,0.2-0.7c0.1,0.3,0.2,0.2,0.2-0.2c0-0.3,0-0.5,0-0.6c0-0.1-0.1,0-0.2,0.1
			c-0.2,0.2-0.3-0.1-0.2-0.6c0-0.2,0-0.3-0.1-0.4c0-0.1,0-0.5,0.1-1c0.1-0.4,0.2-0.8,0.1-1c0-0.1-0.1-0.3-0.1-0.4s0-0.5,0.2-0.9
			c0.2-0.8,0.2-1,0.1-1.3c0-0.2,0-0.2,0.1-0.2s0.1-0.2,0.1-0.4c-0.1-0.2-0.1-0.5,0-0.6c0-0.2,0-0.3,0-0.4c-0.1,0,0-0.3,0-0.5
			c0.1-0.3,0.1-0.5,0.1-0.6c-0.1-0.1-0.1-0.3,0-0.6c0.1-0.3,0.2-0.5,0.1-0.5c-0.1,0.1-0.2,0.5-0.4,1.2c-0.1,0.6-0.2,1.1-0.3,1.1
			c-0.1,0.1-0.2,0.3-0.3,0.5c0,0.2-0.2,0.5-0.2,0.5c-0.2,0.2-0.4,0.8-0.6,1.2c0,0.2-0.1,0.3-0.2,0.3c-0.1,0-0.2,0.4-0.4,0.7
			c-0.1,0.5-0.3,0.8-0.4,0.9c-0.2,0.1-0.2,0.2-0.1,0.4c0.1,0.2,0,0.3-0.1,0.5c-0.2,0.2-0.2,0.4-0.3,0.5c0,0.2-0.2,0.3-0.2,0.3
			c0,0.1-0.2,0.2-0.2,0.5c-0.1,0.2-0.2,0.5-0.2,0.5c-0.2,0.1-0.2,0.2-0.1,0.3c0.1,0.3,0,0.6-0.2,0.8c-0.2,0.1-0.2,0.1-0.2,0.2
			c0.2,0,0.1,0.1,0,0.2c-0.2,0.2-0.3,0.3-0.4,0.4c-0.1,0.1-0.1,0.1,0.2,0.1c0.2,0,0.1,0.5-0.1,0.7c-0.1,0.1-0.3,0.7-0.6,1.5
			c-0.2,0.8-0.4,1.4-0.5,1.5c-0.1,0.1-0.3,0.7-0.6,1.5c-0.2,0.7-0.5,1.4-0.6,1.4c-0.1,0.2-0.1,0.2,0,0.2c0.1,0.1,0,0.5-0.2,0.6
			c-0.1,0.2-0.8,2.3-1.6,5.3c-0.2,0.8-0.3,0.9-0.6,1.1c-0.2,0.2-0.3,0.5-1.1,3c-0.4,1.5-0.9,3.2-1,3.5c-0.2,0.6-0.2,0.8-0.4,0.8
			c-0.2,0.1-0.3,0.5-0.2,0.7c0.2,0.2,0.2,0.2-0.2,0.6c-0.3,0.4-0.3,0.5-0.2,0.4c0.2,0,0.2,0.1,0.2,0.2c0,0.2-0.2,0.4-0.4,0.4
			c-0.2,0-0.2,0.2-0.1,0.3c0.2,0.2,0,0.9-0.3,1.1c-0.2,0.1-0.2,0.2-0.2,0.4c0,0.1-0.1,0.5-0.2,0.8c-0.1,0.3-0.1,0.6,0,0.7
			c0.1,0,0,0.2-0.1,0.5c-0.1,0.3-0.2,0.5-0.4,0.5c-0.1,0.1-0.2,0-0.2-0.1c-0.1-0.1-0.1-0.1-0.2,0c-0.2,0.2-0.7,0-1-0.5
			c-0.3-0.5-0.4-0.8-0.3-1.5c0-0.2,0.1-0.5,0-0.6c0-0.1,0-0.4,0.1-0.7c0.2-0.3,0.2-0.5,0.1-0.5c-0.1-0.1-0.1-0.2,0.1-0.3
			c0.2-0.2,0.2-0.2,0.1-0.4c0-0.2,0-0.2,0.1-0.4c0.1-0.1,0.1-0.2,0.1-0.3c-0.1-0.1-0.1-0.2,0-0.4c0.1-0.1,0.1-0.3,0.1-0.5
			c0-0.5,0.2-0.7,0.3-0.7c0.1,0.1,0.2,0,0.3,0c0.1-0.1,0.1-0.2-0.2-0.1c-0.2,0-0.4-0.1-0.4-0.2c0,0,0.1-0.1,0.2-0.1
			c0.2,0,0.2-0.4,0.2-0.5c-0.2-0.1,0-0.6,0.2-0.8c0.2-0.2,0.2-0.2,0.2-0.4c-0.1-0.1-0.1-0.3,0-0.5c0.1-0.2,0.1-0.4,0-0.4
			c-0.1-0.1,0-0.2,0-0.3c0.3-0.6,0.6-1.2,0.6-1.3c-0.1-0.2,1.3-4.9,1.5-5.1c0.2-0.2,0.4-0.8,0.2-0.8c-0.1,0-0.1-0.1,0.1-0.2
			c0.1-0.2,0.1-0.2,0.1-0.3c-0.1-0.1-0.1-0.2,0-0.2c0.2,0,0.3-0.3,0.2-0.3c-0.2-0.1-0.2-0.1,0.1-0.3c0.1-0.2,0.2-0.6,0.4-1.2
			c0.2-0.7,0.3-0.8,0.4-0.8c0.2-0.1,0.2,0.1,0.1,0.5c-0.1,0.3-0.2,0.6-0.3,0.6c-0.2,0.1,0,0.4,0.2,0.4c0.1-0.1,0.1-0.1,0-0.2
			c0-0.1,0-0.2,0.1-0.2c0.1-0.1,0.2-0.5,0.3-0.8c0.1-0.5,0.1-0.6-0.1-0.6c-0.1,0-0.2-0.1-0.1-0.3c0-0.3,0.1-0.3,0.3-0.2
			c0.2,0.2,0.2,0.2,0.3-0.3c0.1-0.4,0.1-0.5-0.1-0.4c-0.1,0.1-0.2,0.2-0.3,0.2c-0.2,0-0.2-0.1,0-0.5c0.2-0.2,0.3-0.6,0.3-0.8
			c0-0.2,0.2-0.5,0.2-0.5c0,0,0.2-0.2,0.2-0.5c0-0.2,0.2-0.5,0.2-0.5c0.1,0,0.2-0.2,0.2-0.4c0.1-0.2,0.2-0.7,0.3-1.2
			c0.2-0.4,0.3-0.8,0.3-0.8c0.1-0.1,0.2-0.2,0.3-0.2c0.1,0,0.2-0.1,0.2-0.2c0-0.2,0-0.2-0.2-0.1c-0.2,0-0.2,0-0.1-0.1
			c0.1,0,0.2-0.5,0.5-1c0.2-0.5,0.4-1.1,0.5-1.2c0-0.1,0.2-0.4,0.3-0.8c0.1-0.3,0.2-0.7,0.4-0.8c0.1-0.2,0.2-0.5,0.3-0.7
			c0.1-0.3,0.2-0.7,0.3-0.9c0.3-0.5,0.5-1,0.3-1c-0.1,0,0-0.1,0.2-0.2c0.2-0.2,0.3-0.4,0.3-0.5c0-0.1,0-0.2,0.1-0.2
			c0.1-0.1,0.2-0.3,0.2-0.5c0.1-0.2,0.2-0.5,0.3-0.6c0.1-0.2,0.2-0.3,0.2-0.5c0-0.2,0.1-0.3,0.2-0.3c0.1-0.1,0.2-0.3,0.2-0.5
			c0-0.2,0.1-0.5,0.2-0.5c0.1-0.1,0.1-0.2,0.1-0.3c0,0,0.1-0.2,0.2-0.2c0.2-0.1,0.2-0.2,0.1-0.3c-0.1-0.2,0-0.2,0-0.2
			c0.1,0,0.2-0.2,0.3-0.5c0.2-0.5,0.4-0.9,0.4-0.9c0.1,0,0.1-0.2,0.2-0.4c0.1-0.2,0.2-0.4,0.3-0.4c0.1,0,0.2-0.2,0.2-0.3
			c0.2-0.4,0.6-0.7,0.8-0.6c0.2,0,0.3,0,0.5-0.1c0.1-0.1,0.2-0.1,0.2,0.1c0,0.1,0.2,0.2,0.3,0.2c0.2-0.1,0.2-0.2,0.4-0.6
			c0.1-0.2,0.2-0.6,0.2-0.8l0.1-0.3H48c0.3,0,0.7-0.1,0.8-0.2c0.2-0.1,0.2-0.1,0.2,0.1c0.1,0.1,0.2,0.1,0.7,0.1c0.8,0,0.9,0,0.8,0.2
			c0,0.1,0.1,0.2,0.2,0.2c0.2,0,0.2,0.2,0.2,0.4c0,0.2,0,0.3,0.2,0.3c0.2,0.1,0.2,0.2,0.2,0.5c0,0.2,0,0.5,0,0.5
			c0.1,0,0,0.3-0.1,0.7c-0.1,0.3-0.1,0.6-0.1,0.7c0.1,0.1,0,0.4-0.1,0.7c0,0.4-0.1,0.7,0,0.8c0.1,0.1,0.1,0.3,0,0.5
			c-0.1,0.3-0.1,0.5,0,0.5c0.2,0,0,0.7-0.2,0.9c-0.1,0.1-0.1,0.2,0.1,0.4c0.1,0.2,0.1,0.4,0,0.8c0,0.4,0,0.7,0,0.7
			c0.1,0.1,0,0.3,0,0.5c-0.1,0.2-0.1,0.5-0.1,0.5c0.1,0,0.1,0.2,0,0.4c-0.1,0.2-0.2,0.4-0.1,0.5c0,0,0,0.2-0.1,0.5
			c0,0.2-0.1,0.5,0,0.5c0,0.1,0,0.4-0.1,0.7c0,0.3,0,0.6,0.1,0.6c0.1,0.1,0.1,0.2-0.1,0.2c-0.1,0.1-0.2,0.1-0.1,0.2
			c0.1,0,0.1,0.2,0,0.4c0,0.2,0,0.3,0.1,0.3c0,0,0,0.4-0.1,0.8c-0.1,0.5-0.1,0.8-0.1,0.8c0.1,0,0.1,0.2,0,0.5
			c-0.1,0.2-0.1,0.4,0,0.5c0,0,0.1,0.1,0,0.2c-0.1,0.1-0.1,0.2,0,0.2c0,0.1,0.1,0.2,0,0.4c-0.1,0.2,0,0.3,0,0.4
			c0.1,0.1,0.1,0.4,0,0.8c-0.1,0.4-0.1,0.7-0.1,0.7c0.1,0,0.1,0.3,0,0.8c0,0.2,0.1,0.2,0.1,0.3c0,0,0,0.2-0.1,0.5
			c-0.1,0.3-0.1,0.5,0,0.5c0,0,0,0.2,0,0.4c-0.1,0.2-0.1,0.5,0,0.5c0.2,0.2,0.1,0.8-0.2,2.1c-0.1,0.4-0.1,0.7,0,0.8
			c0,0.1,0,0.4-0.2,0.8c-0.2,0.8-0.2,0.8,0,0.8c0.1,0,0.1,0.1,0,0.1c0,0.1,0,0.2,0.1,0.3c0.1,0.2,0.1,0.4,0.1,0.6
			c-0.1,0.2-0.1,0.5,0,0.5c0.1,0,0.1,0.2,0,0.2c0,0.2,0,0.3,0.1,0.3c0,0.1,0,0.2,0,0.3c0,0.2,0,0.4,0,0.5c0.1,0.3,0.1,0.4-0.1,0.5
			c-0.1,0.1-0.1,0.2,0,0.2c0.1,0.1,0.1,0.2,0,0.3c0,0.1,0,0.2,0.1,0.2c0.1,0.1,0.1,0.2,0.1,0.4c-0.1,0.2-0.1,0.2,0,0.2
			s0.1,0.2,0.1,0.5c-0.1,0.5,0.1,0.8,0.2,0.8c0-0.1,0.1-0.3,0.1-0.7C50.9,71.3,51,71,51,71c0.2-0.2,0.6-1.5,0.6-1.6
			c-0.1-0.1,0-0.2,0.1-0.2c0.1-0.1,0.2-0.3,0.2-0.6c0.1-0.3,0.2-0.6,0.3-0.7c0.2-0.1,0.2-0.2,0.1-0.2c-0.2,0,0-0.5,0.2-0.7
			c0.1-0.1,0.2-0.5,0.4-1c0.2-0.6,0.3-0.8,0.4-0.8c0.2,0,0.1,0.5-0.2,0.5c-0.1,0.1-0.1,0.2,0,0.2c0.1,0.2,0,0.2-0.1,0.4
			c-0.3,0.3-1.5,4.1-1.3,3.9c0.2,0,0.2-0.3,0.4-0.8c0.1-0.4,0.2-0.8,0.2-0.8c0.1-0.1,0.2-0.5,0.4-1c0.2-0.5,0.3-0.9,0.3-0.9
			c0.1,0,0.1,0.1,0.7-1.7c0.2-0.8,0.7-1.7,0.9-2.1c0.4-0.8,0.7-1.7,0.7-2c-0.1-0.1-0.2,0.1-0.2,0.5c-0.1,0.3-0.2,0.6-0.2,0.7
			c-0.1,0-0.2,0.2-0.2,0.2c-0.2,0.7-0.5,1.3-0.7,1.3c-0.1,0,0.2-1.3,0.4-1.4c0.1,0,0.3-0.5,0.5-1c0.2-0.6,0.4-1.1,0.5-1.2
			c0.1-0.1,0.8-1.9,0.9-2.2c0-0.1,0.1-0.2,0.1-0.2c0.1,0,0.2-0.2,0.2-0.2c0.1-0.4,0.2-0.5,0.3-0.5c0.1,0-0.1,0.6-0.2,0.7
			c-0.1,0-0.2,0.5-0.4,0.9c-0.2,0.5-0.3,0.9-0.4,1c-0.2,0.2-0.4,1.1-0.3,1.2c0.1,0,0.2-0.1,0.2-0.4c0-0.2,0.2-0.5,0.2-0.5
			c0-0.1,0.2-0.6,0.5-1.2c0.2-0.6,0.4-1.1,0.5-1.2c0.1,0,0.2-0.2,0.2-0.5c0.1-0.4,0.1-0.5-0.2-0.4s-0.4-0.1-0.2-0.2
			c0.2-0.1,0.2-0.1,0.1-0.2c-0.1-0.1-0.1-0.1,0-0.2c0.1-0.1,0.3-0.5,0.5-1c0.2-0.5,0.4-1,0.5-1.1c0-0.1,0.2-0.4,0.3-0.8
			c0.4-1,0.7-1.5,0.7-1.5c0.2,0,0.2,0.2,0.1,0.3c-0.1,0-0.2,0.2-0.3,0.5c-0.1,0.3-0.3,0.9-0.6,1.4c-0.2,0.5-0.4,1-0.5,1.2
			c-0.1,0.2-0.2,0.5-0.2,0.5c-0.2,0.1-0.3,0.7-0.2,0.7c0.2,0,0.4-0.2,0.5-0.5c0.4-1.2,0.8-2.2,0.9-2.2c0.1-0.1,0.2-0.4,0.3-0.8
			c0.2-0.5,0.4-1.1,0.7-1.8c0.2-0.5,0.1-0.5-0.2-0.1c-0.1,0.2-0.2,0.3-0.3,0.3c-0.1,0,0-0.4,0.2-0.5c0.1-0.1,0.2-0.2,0.1-0.2
			c-0.1-0.2,0-0.5,0.2-0.5c0.1,0,0.2,0.1,0.2,0.2c0,0.2,0,0.2,0.2,0c0.2-0.2,0.2-0.2,0.7-1.4c0.2-0.5,0.4-0.9,0.5-0.9
			c0.2-0.2,0.2-0.5,0.1-0.5s-0.2-0.1-0.1-0.2c0-0.2,0.1-0.2,0.1-0.2c0,0.2,0,0.2,0.1,0.2c0.2-0.1,0.4-0.4,0.4-0.6
			c0-0.1,0.1-0.2,0.2-0.2c0.1,0,0.2-0.4,0.3-0.7c0.1-0.3,0.2-0.6,0.2-0.7c0.1,0,0.2-0.4,0.4-0.8c0.2-0.4,0.3-0.8,0.4-0.8
			c0.1-0.2,0.2-0.2,0.5-1.1c0.1-0.2,0.2-0.5,0.2-0.5c0.1-0.1,0.1-0.2,0-0.2c-0.1-0.1-0.1-0.1,0-0.2c0.2-0.1,0.3-0.5,0.5-0.8
			c0.2-0.4,0.3-0.8,0.4-0.8c0,0,0.1-0.2,0.2-0.4c0.1-0.2,0.2-0.3,0.2-0.4c0.1,0,0.2-0.2,0.4-0.5c0.1-0.3,0.2-0.6,0.3-0.7
			c0.2-0.2,0.2-0.2,0.1-0.2c-0.1-0.1-0.1-0.1,0.1-0.2c0.2-0.2,0.4-0.7,0.7-1.4c0-0.2,0.1-0.2,0.2-0.2c0,0,0.1-0.2,0.2-0.2
			c0-0.2,0.1-0.3,0.2-0.5c0.1-0.1,0.3-0.5,0.5-0.9c0.2-0.6,0.2-0.7,0-0.5c-0.2,0.1-0.3,0.4-0.3,0.6c-0.1,0.3-0.2,0.5-0.2,0.5
			c-0.1,0-0.2,0.3-0.4,0.6c-0.1,0.4-0.2,0.7-0.3,0.8c-0.1,0.1-0.2,0.2-0.2,0.2c0.1,0,0,0.2-0.1,0.2c-0.2,0.3-0.3,0.5-0.7,1.4
			c-0.2,0.5-0.3,0.8-0.4,0.9c-0.1,0.1-0.2,0.2-0.2,0.4c-0.1,0.2-0.2,0.4-0.3,0.5c-0.2,0.1-0.2,0.1-0.2,0s0.1-0.2,0.1-0.2
			c0.1,0,0.2-0.1,0.2-0.2c0.1-0.3,0.7-1.7,0.7-1.8c0.1-0.1,0.2-0.2,0.2-0.2c0.3-0.8,0.6-1.2,0.7-1.2s0.2-0.2,0.2-0.5
			c0.1-0.3,0.2-0.5,0.2-0.6c0.1,0,0.2-0.3,0.4-0.6c0.1-0.4,0.3-0.8,0.4-0.9c0.2-0.2,0.2-0.2,0.1-0.3c-0.1,0-0.1-0.1,0-0.2
			c0.2-0.1,0.2-0.3,0.3-0.5c0.1-0.2,0.2-0.4,0.3-0.6c0.1-0.2,0.2-0.4,0.3-0.6c0-0.2,0.1-0.3,0.2-0.3c0.1-0.1,0.2-0.3,0.2-0.5
			c0.1-0.2,0.2-0.5,0.4-0.7c0.2-0.4,0.6-1.1,0.4-1.1c0,0,0-0.2,0.2-0.2c0.2-0.2,0.3-0.5,0.5-0.8c0.1-0.3,0.2-0.6,0.3-0.7
			c0.2-0.2,0.3-0.7,0.2-0.8c-0.1,0-0.1-0.1,0-0.2c0-0.1,0.1-0.1,0.2,0c0.1,0,0.1-0.1,0.1-0.3c0.1-0.2,0.2-0.4,0.2-0.5
			c0.2-0.1,0.2-0.2,0.3-0.5c0.1-0.2,0.2-0.3,0.2-0.3l0.1-0.1c0-0.1,0-0.2-0.2-0.2c-0.2,0.1-0.1-0.2,0.2-0.2c0.3-0.1,0.4-0.2,0.2-0.3
			c-0.2,0-0.2,0,0-0.1c0.2,0,0.2-0.1,0.2-0.2c0-0.1,0.1-0.2,0.2-0.2c0.1-0.1,0.1-0.2,0-0.2c0-0.2,0-0.3,0.2-0.5
			c0.2-0.2,0.2-0.4,0.2-0.5c-0.1-0.1-0.1-0.2,0.1-0.3c0.2-0.2,0.2-0.3,0.2-0.5c-0.1-0.2,0-0.2,0.1-0.2c0,0.1,0.1,0,0.2,0
			c0.1-0.1-0.1-0.2-0.3-0.2c-0.3,0.1-0.5,0-0.5,0c0-0.1,0.7-0.7,0.8-0.8c0.1-0.1,0.4-0.5,0.6-0.8c0.1-0.2,0.4,0.2,1.3,1.2
			c0.7,0.8,1.2,1.5,1.3,1.7c0.2,0.2,0.2,0.3-0.1,0.5c-0.1,0.2-0.2,0.3-0.2,0.3c0.1,0.1,0,0.2-0.2,0.5c-0.2,0.2-0.3,0.5-0.3,0.7
			c-0.1,0.2-0.2,0.5-0.2,0.5c-0.1,0.1-0.2,0.2-0.2,0.5c-0.1,0.2-0.2,0.4-0.2,0.4c0,0.1-0.2,0.4-0.3,0.8c-0.2,0.3-0.3,0.7-0.4,0.8
			c-0.2,0.1-0.5,0.9-0.7,1.5c-0.1,0.2-0.2,0.4-0.2,0.4c-0.1,0-0.2,0.2-0.2,0.5c-0.1,0.3-0.2,0.5-0.3,0.6c-0.1,0-0.2,0.3-0.4,0.5
			c-0.1,0.2-0.2,0.5-0.3,0.7c-0.1,0.1-0.1,0.2,0,0.2c0.2,0,0.1,0-0.1,0.2c-0.2,0.2-0.2,0.3-0.2,0.6c-0.1,0.3-0.1,0.4-0.2,0.4
			c-0.1,0-0.2,0.2-0.4,0.9c-0.2,0.5-0.4,1-0.5,1.1c-0.1,0.1-0.2,0.5-0.4,0.9c-0.2,0.5-0.5,1-0.7,1.2c-0.2,0.2-0.2,0.4-0.2,0.5
			c0.1,0.1,0.1,0.1,0,0.1c-0.1,0-0.2,0.3-0.4,0.8C69.3,38.5,69,38.9,69,39c-0.1,0.2-0.2,0.5-0.3,0.8c-0.2,0.4-0.3,0.8-0.4,0.8
			c-0.1,0.1-0.2,0.3-0.2,0.5c-0.1,0.2-0.2,0.3-0.3,0.3s-0.3,0.1-0.3,0.1c0,0.1,0,0.2,0.2,0.2c0.2-0.1,0.1,0.1-0.2,0.7
			c-0.2,0.4-0.2,0.8-0.3,0.8c0,0.2-0.1,0.2-0.2,0.3c-0.1,0-0.2,0.2-0.2,0.5c-0.1,0.3-0.2,0.5-0.3,0.5C66,44.5,66,44.6,66,44.8
			c0.1,0.2-0.2,0.8-0.4,1.2c0,0.1-0.1,0.2-0.2,0.3c-0.3,0.8-0.4,1-0.7,1c-0.2,0-0.2,0-0.3,0.1c-0.1,0.1,0,0.2,0.2,0.2
			c0.2,0,0.3,0.2,0.2,0.2c-0.1,0.1-0.2,0.3-0.2,0.5c-0.1,0.2-0.2,0.5-0.3,0.5c-0.1,0.1-0.1,0.2-0.1,0.2c0.1,0.2,0,0.2,0,0.3
			c-0.1,0.1-0.2,0.4-0.3,0.7c-0.2,0.3-0.3,0.6-0.4,0.7c-0.2,0.2-0.2,0.2-0.1,0.3c0.1,0.2,0,0.2-0.2,0.2c-0.2,0-0.3,0.1-0.3,0.2
			c0,0.1,0.1,0.1,0.2,0.1c0.1,0,0.2,0.1,0.1,0.2c0,0.2-0.2,0.3-0.2,0.3c-0.1,0-0.2,0.1-0.2,0.1c-0.1,0.1,0,0.2,0.1,0.2
			c0.3-0.1,0.1,0.4-0.3,0.7c-0.2,0.2-0.4,0.3-0.5,0.4c0,0.1,0.1,0.1,0.2,0c0.2-0.2,0.2-0.2,0.2,0.1c-0.1,0.2-0.3,0.5-0.6,0.5
			c-0.2,0-0.2,0.3,0,0.4c0.2,0,0.2,0.1,0.1,0.2c-0.1,0.1-0.2,0.5-0.3,0.9c-0.2,0.4-0.3,0.8-0.4,0.8c-0.1,0.1-0.2,0.5-0.2,0.5
			c0.1,0,0,0.2-0.1,0.3c-0.2,0.1-0.2,0.2-0.3,0.2c-0.1,0-0.1,0.1,0,0.2c0.1,0.2,0.1,0.2-0.1,0.3c-0.1,0.1-0.2,0.2-0.2,0.3
			c-0.2,0.5-0.5,1-0.7,1.2c-0.2,0.2-0.2,0.3-0.2,0.3c0,0,0,0.2-0.1,0.5c-0.1,0.3-0.2,0.4-0.4,0.5c-0.2,0-0.2,0.1-0.3,0.3
			c0,0.1,0,0.2,0.1,0.2c0,0,0.1-0.1,0.2-0.2c0-0.2,0.1-0.2,0.1-0.2c0.2,0.2,0,0.6-0.2,0.7c-0.2,0.1-0.2,0.2-0.2,0.2
			c0.1,0.1-0.1,0.8-0.2,0.8c-0.1,0-0.1-0.1-0.1-0.2c-0.1-0.1-0.1,0-0.2,0.1c0,0.2,0,0.2,0.2,0.2c0.2,0,0.1,0.5-0.2,0.8
			c-0.1,0-0.3,0.5-0.5,0.9c-0.2,0.5-0.3,0.8-0.4,0.9c-0.2,0.1-0.2,0.1-0.1,0.2c0.2,0.1,0,0.8-0.2,1c-0.1,0.1-0.2,0.2-0.2,0.4
			c-0.1,0.2-0.2,0.3-0.2,0.4c-0.2,0-0.2,0.1-0.1,0.2c0.2,0.1-0.2,0.9-0.3,1c-0.2,0-0.2,0.2-0.1,0.4c0.1,0.1,0,0.2-0.1,0.2
			c-0.2,0.2-0.2,0.2-0.2,0.4c0.1,0.2,0,0.2,0,0.3c-0.1,0-0.4,0.8-0.7,1.8c-0.5,1.7-0.7,2.1-1,2.1c-0.3,0-0.2,0.2,0,0.2
			c0.4,0.1,0.3,0.3-0.1,0.3c-0.2,0-0.2,0.1-0.3,0.2c0,0.1,0.1,0.2,0.2,0.2c0.1,0,0.2,0.1,0.1,0.2c0,0.1,0,0.2,0.1,0.2
			c0.2,0,0,0.6-0.2,0.7c-0.1,0.1-0.1,0.2-0.1,0.2c0.1,0.1,0.1,0.2-0.1,0.2c-0.2,0.2-0.3,0.8-0.2,0.8c0.2,0,0.1,0.8-0.1,1
			c-0.2,0.1-0.3,0.5-0.2,0.5c0.1,0,0.1,0.1-0.1,0.3c-0.1,0.2-0.2,0.3-0.1,0.4c0.1,0.2,0,0.4-0.3,0.5c-0.2,0.2-0.2,0.2-0.2,0.2
			s0.1,0.1,0.1,0.2c0,0.1,0.1,0.1,0.2,0.1c0.2,0,0.2,0.1-0.2,0.4c-0.2,0.2-0.2,0.4-0.2,0.5c0,0.2,0,0.3-0.1,0.3
			c-0.2,0.2-0.2,0.6-0.1,0.6c0.1,0,0.1,0.1,0.1,0.2c0,0.2-0.2,0.2-0.2,0.2s-0.2,0.1-0.2,0.2c-0.1,0.1-0.2,0.2-0.2,0
			C51.4,82,51.2,82,50.9,82z M32.1,81.8c-0.2-0.1-0.2-0.2-0.1-0.3c0.1-0.1,0.2,0,0.2,0.1c0,0.1,0.1-0.2,0.2-0.6
			c0.1-0.6,0.1-0.9-0.2-0.8c0,0-0.1,0.2-0.1,0.4c-0.1,0.2-0.1,0.3-0.2,0.3c-0.1,0-0.2,0-0.2-0.1c0.1-0.1,0-0.2-0.1-0.2
			c-0.2,0.1-0.2,0.4,0.1,0.4c0.2,0,0.2,0.1,0.2,0.2c0,0.2-0.1,0.2-0.2,0.2c-0.2-0.1-0.3,0.2-0.2,0.2c0.1,0,0.1,0.1,0,0.2
			c-0.1,0.1,0,0.1,0,0.1c0.1,0,0.2,0.2,0.2,0.3c0.1,0.3,0.2,0.3,0.3,0C32.3,81.9,32.2,81.8,32.1,81.8z M32,78.7
			c-0.1,0-0.2,0.2-0.2,0.5c-0.1,0.2-0.1,0.5,0,0.5s0.2-0.2,0.2-0.5C32.1,78.8,32.1,78.7,32,78.7z M32,77.8c-0.1,0-0.2,0.4-0.2,0.5
			c0.1,0.1,0.2,0.1,0.2-0.2C32.1,77.9,32.1,77.8,32,77.8z M32.1,77c-0.1,0-0.1,0.1-0.2,0.2c0,0.1,0.1,0.1,0.1,0.1
			c0.1,0,0.2-0.1,0.2-0.1C32.1,77.1,32.1,77,32.1,77z M32.1,77.4c-0.2,0.1-0.2,0.2,0,0.2c0.1,0,0.1-0.1,0.2-0.1
			C32.2,77.4,32.1,77.4,32.1,77.4z M32.1,82.4c-0.1,0-0.1,0.1-0.1,0.2C32.1,82.7,32.2,82.7,32.1,82.4C32.3,82.4,32.2,82.3,32.1,82.4
			z M32.3,76.3c-0.1,0-0.2,0.1-0.2,0.2c-0.1,0.2-0.1,0.2,0,0.2c0.1,0,0.2-0.1,0.2-0.2C32.4,76.4,32.4,76.3,32.3,76.3z M32.5,75.4
			c-0.1-0.1,0-0.5,0.2-1.3c0.2-0.8,0.3-1.2,0.2-1.2c-0.1,0-0.2,0.5-0.5,1.4c-0.3,1.2-0.4,1.5-0.2,1.5c0.1,0,0.2-0.1,0.2-0.2
			C32.6,75.5,32.6,75.4,32.5,75.4z M32.7,77.9c0-0.1,0-0.3,0.1-0.6c0-0.2,0-0.5-0.1-0.4c-0.1,0-0.4,1.5-0.3,1.5c0,0.1,0,0.3,0,0.5
			c-0.1,0.2-0.1,0.4,0,0.4c0,0.1,0,0.2-0.1,0.2c-0.1,0.2-0.1,0.5,0.1,0.5c0,0,0.1-0.5,0.2-1C32.7,78.4,32.8,78,32.7,77.9z
			 M33.3,75.3c-0.1,0-0.1-0.2-0.1-0.5c0.1-0.4,0.1-0.5,0.4-0.5c0.2-0.1,0.3-0.2,0.3-0.2c0-0.2-0.2-0.1-0.3,0.1c0,0.1,0,0,0.1-0.2
			c0.1-0.2,0.1-0.3,0-0.4c-0.2-0.2,0.1-1.2,0.3-1.2c0.1-0.1,0.2-0.1,0.2-0.2c0.1-0.1,0-0.2-0.1-0.2c-0.2,0.1-0.2-0.1,0-0.5
			c0.1-0.3,0.2-0.6,0.2-0.6c0.1,0,0.2-0.1,0.2-0.3c0.1-0.2,0.1-0.3,0.1-0.3s-0.2,0.1-0.2,0.1c-0.2,0.1-0.2,0.3-0.7,1.6
			c-0.2,0.9-0.3,1.5-0.2,1.5c0.1,0,0,0.2-0.1,0.2c-0.2,0.2-0.2,0.3-0.2,0.3c0.2,0,0.1,0.2-0.1,0.4C33,74.6,33,74.7,33,74.8
			c0,0.2,0,0.5-0.2,1c-0.2,0.8,0,0.9,0.2,0.1C33.3,75.7,33.3,75.4,33.3,75.3z M33.4,71.7c-0.2,0.1-0.2,0.5-0.2,0.5
			c0.1,0,0.2-0.1,0.2-0.2C33.5,71.7,33.5,71.6,33.4,71.7z M33.5,70.7c-0.2,0.3-0.2,0.7,0,0.6c0,0,0.1-0.2,0.2-0.5
			C33.8,70.4,33.7,70.3,33.5,70.7z M33.6,74.7c0,0-0.1,0.1-0.2,0.2c0,0.2,0,0.2,0.1,0.2c0.1,0,0.2-0.1,0.2-0.2
			C33.7,74.8,33.7,74.7,33.6,74.7z M33.6,79.2c-0.1,0-0.1,0-0.2,0.1c0,0.1,0.1,0.1,0.2,0.1C33.6,79.3,33.7,79.3,33.6,79.2
			C33.7,79.2,33.7,79.2,33.6,79.2z M33.9,70c-0.2,0.1-0.2,0.3-0.1,0.2C33.9,70.2,33.9,70.1,33.9,70C33.9,70,33.9,69.9,33.9,70z
			 M33.9,69.6c-0.1,0-0.1,0.1-0.1,0.2l0.1,0.1C33.9,69.8,34,69.7,33.9,69.6C34,69.7,34,69.6,33.9,69.6z M34,72.6
			c-0.1,0-0.2,0.1-0.2,0.2c0,0.1,0,0.1,0.1,0.1c0.1,0,0.2-0.1,0.2-0.1C34.1,72.7,34.1,72.6,34,72.6z M34.2,68.7
			c-0.1,0-0.2,0.2-0.2,0.3c0,0.2,0,0.4,0.1,0.3c0.1,0,0.2-0.1,0.2-0.3C34.3,68.9,34.3,68.7,34.2,68.7z M34.4,67.9
			c-0.1,0-0.2,0.2-0.2,0.4c-0.1,0.2-0.1,0.4,0,0.4c0.1,0,0.2-0.2,0.2-0.4C34.5,68,34.5,67.9,34.4,67.9z M34.8,69.8
			c0,0,0-0.2,0.2-0.3c0.2-0.2,0.2-0.2,0-0.3c-0.1-0.1-0.1-0.1,0.1-0.2c0.2-0.2,0.2-0.3-0.2-0.2c-0.1,0-0.2,0.1-0.2,0.2
			c0,0.2,0,0.2-0.1,0.3c-0.2,0.1-0.3,0.5-0.2,0.6c0.1,0.1,0.5,0,0.5-0.1C34.9,69.9,34.9,69.8,34.8,69.8z M34.7,72
			c-0.1,0-0.2,0.1-0.2,0.2c0,0,0.1,0.1,0.2,0.1c0.1,0,0.2-0.1,0.2-0.2C34.9,72.1,34.8,72,34.7,72z M35.4,64.4
			c-0.2,0.1-1.1,3.2-0.9,3.2c0.1,0,0.3-0.6,0.6-1.5C35.5,64.7,35.6,64.3,35.4,64.4z M34.8,75c0,0-0.1,0.1-0.2,0.2
			c0,0,0.1,0.1,0.2,0.1C34.8,75.3,34.9,75.2,34.8,75C34.9,75.1,34.9,75,34.8,75z M34.9,71.4c-0.1,0-0.2,0.1-0.2,0.2
			c-0.1,0.1,0,0.2,0.1,0.2c0,0,0.1-0.1,0.2-0.2C35,71.5,35,71.4,34.9,71.4z M34.9,68.2c-0.1,0-0.2,0.1-0.2,0.1
			c0,0.1,0.1,0.2,0.2,0.2s0.2-0.1,0.2-0.2C35.1,68.2,35.1,68.2,34.9,68.2z M35.3,73.9c-0.2,0-0.2,0.1-0.3,0.2c0,0.1,0.1,0.2,0.2,0.2
			c0.1,0,0.2-0.1,0.2-0.2C35.4,74,35.3,73.9,35.3,73.9z M35.5,67.3c-0.1,0,0-0.2,0-0.2c0.1-0.1,0.1-0.2,0-0.2
			c-0.1-0.1-0.2,0.1-0.2,0.3c-0.1,0.5,0,0.6,0.2,0.3C35.6,67.4,35.6,67.4,35.5,67.3z M35.8,66.5c-0.1,0-0.1-0.1,0-0.2
			c0.1-0.2,0-0.2-0.1-0.2s-0.2,0.1-0.2,0.2C35.4,66.7,35.7,66.8,35.8,66.5C35.9,66.5,35.9,66.5,35.8,66.5z M35.7,68.3
			c0,0.2,0.1,0.2,0.2,0.2c0.2,0,0.2-0.1,0.2-0.2C36.1,68.1,35.8,68.1,35.7,68.3z M35.8,73.4c-0.1,0-0.1,0-0.2,0.1
			c0,0.1,0.1,0.1,0.1,0.1C35.8,73.5,35.9,73.5,35.8,73.4C35.9,73.4,35.9,73.4,35.8,73.4z M36.3,65.3c0.2-0.1,0.2-0.5,0.2-0.7
			c-0.1-0.2-0.1-0.2,0.1-0.3c0.2-0.2,0.2-0.2,0.1-0.2c-0.1,0-0.1-0.1-0.1-0.2s0-0.2-0.1-0.2c-0.2,0-0.2,0.3-0.1,0.4
			c0.1,0,0.1,0.1-0.1,0.2c-0.2,0.2-0.6,0.8-0.3,0.8c0.1,0,0,0.2-0.1,0.4c-0.1,0.3-0.2,0.5-0.1,0.5c0.1,0,0.2-0.2,0.2-0.3
			C36.2,65.5,36.3,65.3,36.3,65.3z M36.3,69.5c-0.1,0-0.2,0-0.2,0.1c0,0.1,0.1,0.1,0.1,0.1C36.3,69.6,36.3,69.5,36.3,69.5
			C36.3,69.5,36.3,69.4,36.3,69.5z M36.4,66.7c0,0-0.1,0.1-0.1,0.2c-0.1,0.1,0,0.1,0.1,0c0.1,0,0.2-0.1,0.2-0.1
			C36.6,66.7,36.5,66.7,36.4,66.7z M36.6,70.7c-0.1,0-0.1,0-0.2,0.2c0,0.1,0,0.2,0.1,0.2c0.1-0.1,0.2-0.1,0.2-0.2
			C36.7,70.8,36.7,70.8,36.6,70.7z M36.8,65.5c-0.1,0-0.2,0.2-0.2,0.4c-0.1,0.2-0.1,0.3,0,0.3s0.2-0.1,0.2-0.3
			C36.8,65.7,36.8,65.6,36.8,65.5z M36.9,63.2c0,0-0.2,0.1-0.2,0.2c-0.2,0.2-0.2,0.2,0,0.2c0.2,0,0.2-0.1,0.3-0.2
			C37,63.3,37,63.2,36.9,63.2z M37,62.7c-0.2-0.1-0.3-0.1-0.2,0.1c0.1,0.1,0.1,0.1-0.1,0.2c-0.2,0.1-0.2,0.4-0.1,0.3
			c0.1,0,0.2-0.2,0.3-0.2C37.2,62.8,37.2,62.7,37,62.7z M36.8,69.7c-0.1,0-0.1,0.1-0.1,0.2c-0.1,0,0,0.1,0.1,0.1
			C36.8,70,36.9,69.9,36.8,69.7C36.8,69.8,36.8,69.7,36.8,69.7z M36.9,65.1c-0.1,0-0.1,0.1-0.2,0.2c0,0.1,0.1,0.1,0.2,0
			C37,65.2,37,65.1,36.9,65.1C37,65.1,37,65.1,36.9,65.1z M37,60c-0.2,0.2-0.2,0.5-0.2,0.5c0.1,0,0.2-0.2,0.2-0.4
			C37.2,59.9,37.2,59.9,37,60z M37.4,62c-0.1-0.2-0.2-0.2-0.3,0c-0.1,0.1-0.2,0.2-0.2,0.2c0.1,0.1,0.5,0.1,0.5,0S37.4,62.1,37.4,62z
			 M37.1,64.6c-0.1,0-0.2,0-0.2,0.1c0,0.2,0,0.2,0.1,0.2s0.1-0.1,0.2-0.2C37.2,64.7,37.1,64.7,37.1,64.6z M37.5,59.3
			c-0.2,0.1-0.3,0.3-0.2,0.2C37.4,59.5,37.5,59.4,37.5,59.3C37.7,59.3,37.6,59.3,37.5,59.3z M37.4,65.9C37.3,65.9,37.2,66,37.4,65.9
			c-0.1,0.2-0.1,0.2,0,0.2C37.4,66.1,37.5,66.1,37.4,65.9C37.5,65.9,37.4,65.9,37.4,65.9z M37.6,60.7c0,0-0.1,0.1-0.2,0.2
			c0,0.1,0,0.2,0.1,0.2s0.2-0.1,0.2-0.2C37.7,60.7,37.7,60.7,37.6,60.7z M37.7,58.3c-0.1,0-0.2,0.2-0.2,0.3c-0.1,0.2,0,0.3,0.1,0.3
			c0.1-0.1,0.2-0.2,0.2-0.4C37.8,58.4,37.7,58.3,37.7,58.3z M37.7,62.8c-0.1,0-0.1,0.1-0.1,0.2c0,0.1,0.1,0.1,0.1,0.1
			c0.1,0,0.1,0,0.1-0.1C37.7,62.9,37.7,62.8,37.7,62.8z M37.8,58c-0.1,0-0.2,0.1-0.2,0.1c0,0.1,0,0.2,0.1,0.2
			C37.8,58.2,37.9,58.1,37.8,58C37.9,58.1,37.9,58,37.8,58z M38.1,59.6c-0.1,0-0.2,0.1-0.2,0.2s-0.1,0.2-0.2,0.2
			c-0.1,0-0.2,0.2-0.1,0.3v0.3l0.2-0.2c0.1-0.2,0.2-0.4,0.2-0.5C38.3,59.7,38.3,59.6,38.1,59.6z M38.2,57.1c0,0-0.1,0.1-0.2,0.3
			c-0.1,0.2,0,0.3,0,0.3c0.1,0,0.2-0.2,0.2-0.2C38.3,57.4,38.3,57.2,38.2,57.1z M38.5,56.3c0-0.2-0.1-0.1-0.2,0.2
			c-0.1,0.2-0.1,0.4,0,0.4c0.1,0,0.2-0.1,0.2-0.2C38.6,56.5,38.6,56.4,38.5,56.3z M38.6,62.3c-0.1,0-0.2,0.1-0.3,0.2
			c-0.1,0.1-0.1,0.2,0,0.2c0,0,0.2-0.1,0.2-0.2C38.6,62.4,38.7,62.3,38.6,62.3z M39,57.8c0.2-0.2,0.1-0.3-0.2-0.1
			c-0.2,0.2-0.6,1-0.3,1c0,0,0.2-0.2,0.2-0.4C38.7,58.1,38.9,57.9,39,57.8z M39,55.1c-0.2,0.1-0.2,0.2-0.1,0.2
			C39,55.2,39.1,55.1,39,55.1C39.1,55.1,39.1,55,39,55.1z M39.4,56.9c0.1-0.1,0.1-0.2,0-0.2c0-0.1,0-0.2,0-0.2c0.1,0,0.1-0.1,0-0.2
			c-0.1-0.1-0.2-0.2-0.2-0.2c-0.1,0-0.2,0.1-0.2,0.2c-0.1,0.2,0,0.2,0.1,0.2c0.1,0,0.1,0.2-0.1,0.5c-0.1,0.3-0.2,0.4,0,0.4
			c0.1,0,0.2-0.2,0.2-0.2S39.3,56.9,39.4,56.9z M39.4,54.3c0,0-0.1,0-0.2,0.2c0,0.1,0,0.2,0.1,0.2c0.1,0,0.2-0.1,0.2-0.2
			C39.5,54.4,39.5,54.4,39.4,54.3z M39.4,58.2c0,0-0.1,0.1-0.2,0.2c0,0.2,0,0.2,0.1,0.2c0.1-0.1,0.2-0.2,0.2-0.2
			C39.5,58.4,39.5,58.3,39.4,58.2z M39.7,57.5c-0.1,0-0.1,0.1-0.2,0.2c0,0-0.1,0.2-0.1,0.3c-0.2,0.2-0.2,0.2,0.1,0
			c0.1-0.1,0.2-0.2,0.2-0.3C39.8,57.6,39.8,57.5,39.7,57.5z M39.5,53.7c-0.2,0.3-0.2,0.4,0,0.3c0.1-0.1,0.2-0.2,0.3-0.5
			C40,53.1,39.8,53.2,39.5,53.7z M39.8,55.4c-0.1,0-0.2,0.1-0.2,0.2c0,0.1,0,0.2,0.1,0.2c0,0,0.1-0.1,0.2-0.2
			C39.9,55.4,39.9,55.4,39.8,55.4z M40,56.5c-0.1,0-0.2,0.1-0.2,0.2c0,0.2,0,0.3,0.1,0.3s0.2-0.2,0.2-0.3
			C40.1,56.6,40.1,56.5,40,56.5z M40.4,55.4c-0.1,0.1-0.2,0.2-0.2,0.2c0,0.1,0.2,0.1,0.4-0.1C40.8,55.3,40.6,55.2,40.4,55.4z
			 M40.5,51.8c-0.1,0-0.2,0.2-0.2,0.4c-0.1,0.2-0.1,0.5,0,0.5s0.2-0.2,0.2-0.5C40.5,52,40.5,51.8,40.5,51.8z M40.7,53.3
			c-0.2,0.3-0.5,0.8-0.3,0.8c0,0,0.2-0.2,0.3-0.4C41,53.3,41,53,40.7,53.3z M40.9,51.1c-0.1-0.1-0.2,0-0.2,0.2c-0.1,0.2,0,0.3,0,0.3
			c0.1,0,0.2-0.1,0.2-0.2C41,51.3,41,51.1,40.9,51.1z M40.9,52.7c-0.1,0-0.1,0.1-0.1,0.2c0,0.1,0.1,0.1,0.2,0c0.1,0,0.1-0.1,0.1-0.2
			C41,52.7,41,52.6,40.9,52.7z M41.2,50.5C41.1,50.5,41,50.5,41.2,50.5c-0.1,0.2-0.1,0.2,0,0.2C41.2,50.6,41.3,50.6,41.2,50.5
			C41.3,50.5,41.3,50.5,41.2,50.5z M41.4,49.9c-0.1,0-0.2,0.1-0.2,0.2c-0.1,0.1,0,0.2,0,0.2c0.1,0,0.2-0.1,0.2-0.2
			C41.4,50,41.4,49.9,41.4,49.9z M41.4,51.8C41.3,51.8,41.3,51.8,41.4,51.8c-0.1,0.2,0,0.2,0,0.2S41.4,51.9,41.4,51.8
			C41.4,51.8,41.4,51.8,41.4,51.8z M41.8,47.7c0,0.1,0,0.2,0,0.2c-0.1,0.1-0.1,0.1-0.1-0.1C41.7,47.8,41.8,47.7,41.8,47.7z
			 M41.9,48.8c-0.1,0-0.2,0.1-0.2,0.2c0,0.1,0,0.2,0.1,0.2c0.1,0,0.2-0.1,0.2-0.2C41.9,48.9,41.9,48.8,41.9,48.8z M42.1,48.5
			C42,48.7,42,48.7,42.1,48.5c0.1,0,0.1-0.1,0.1-0.2C42.2,48.3,42.1,48.4,42.1,48.5z M42.6,47.3c-0.1,0-0.1,0.1-0.2,0.2
			c0,0.1,0,0.2,0.1,0.2c0.1-0.1,0.2-0.1,0.2-0.2C42.7,47.4,42.7,47.3,42.6,47.3z M43,46.8c-0.1,0-0.2,0.1-0.2,0.2c0,0.1,0,0.1,0.1,0
			C43,46.9,43.1,46.8,43,46.8C43.1,46.8,43.1,46.8,43,46.8z M46.7,63.7c-0.2,0.2-0.1,0.3,0,0.3c0.1-0.1,0.2-0.2,0.2-0.3
			C47,63.4,46.9,63.4,46.7,63.7z M46.7,54.8c0,0-0.1,0.1-0.1,0.2c0,0,0,0.1,0.1,0.1c0,0,0.1-0.1,0.2-0.1
			C46.9,54.8,46.8,54.8,46.7,54.8z M46.8,55.8c-0.1,0-0.2,0.1-0.2,0.2s0,0.2,0.1,0.2c0.1,0,0.2-0.1,0.2-0.2S46.9,55.8,46.8,55.8z
			 M46.8,57.9c-0.1,0.1-0.2,0.2-0.2,0.2c0.1,0.1,0.2,0.1,0.2-0.1C46.9,57.9,46.9,57.9,46.8,57.9z M47,58.5c0-0.1,0-0.2-0.1-0.2
			s-0.2,0.2-0.2,0.4c0,0.2,0,0.4,0.1,0.3c0.1,0,0.1-0.1,0.2-0.1L47,58.5z M47,65.4c-0.1,0-0.1-0.2,0-0.3c0-0.2,0-0.3-0.1-0.3
			s-0.2,0.2-0.2,0.3c-0.1,0.2-0.1,0.3,0,0.3c0.1,0,0.1,0.2,0,0.4c-0.1,0.2,0,0.3,0,0.3c0.1-0.1,0.2-0.2,0.2-0.3
			C47,65.6,47,65.4,47,65.4z M46.8,59.7L46.8,59.7c-0.2,0.2-0.1,0.2,0,0.2C46.8,60,46.9,59.9,46.8,59.7C47,59.8,46.9,59.7,46.8,59.7
			z M47,61.4c-0.1,0-0.1-0.3-0.1-0.5c0.1-0.2,0.1-0.5,0-0.5c-0.2,0-0.2,0.8-0.2,1c0.1,0.1,0.1,0.2,0,0.3c0,0.2,0,0.2,0.1,0.2
			c0,0,0.2-0.1,0.2-0.2C47,61.5,47,61.4,47,61.4z M46.7,64.5C46.7,64.7,46.7,64.7,46.7,64.5c0.2-0.2,0.2-0.2,0.2-0.3
			C46.8,64.1,46.6,64.3,46.7,64.5z M46.9,55.1c-0.1-0.1-0.1,0-0.2,0.1c0,0.1,0,0.2,0.1,0.2c0.1,0,0.2,0,0.2-0.1S47,55.1,46.9,55.1z
			 M46.9,56.3c-0.1,0-0.2,0.1-0.2,0.2c0,0.1,0,0.2,0.1,0.2c0.1-0.1,0.2-0.1,0.2-0.2C47,56.4,47,56.3,46.9,56.3z M47,52.7
			c0,0-0.1,0.2-0.2,0.3c-0.1,0.2,0,0.3,0,0.3c0.1,0,0.2-0.2,0.2-0.3C47,52.8,47,52.7,47,52.7z M47,62.1c-0.1,0-0.2,0.1-0.2,0.2
			c-0.1,0.2,0,0.2,0.1,0.2c0-0.1,0.1-0.2,0.2-0.2C47,62.2,47,62.1,47,62.1z M46.8,52.4c0.1,0.2,0.1,0.2,0.2,0c0-0.1,0.1-0.2,0-0.2
			C46.9,52.1,46.7,52.3,46.8,52.4z M47,50.6c-0.1,0-0.2,0.1-0.2,0.2c-0.1,0.1,0,0.2,0.1,0.2c0,0,0.1-0.1,0.2-0.2
			C47.1,50.7,47,50.6,47,50.6z M47,68.4c-0.1,0-0.2,0.1-0.2,0.1c0,0.1,0,0.2,0.1,0.2C47,68.6,47,68.5,47,68.4
			C47.1,68.4,47,68.4,47,68.4z M47,68.8c-0.1,0-0.1,0.1-0.1,0.2C47,69.1,47,69.1,47,68.8C47.1,68.8,47,68.8,47,68.8z M47.1,69.2
			c-0.1,0-0.2,0-0.2,0.1c0,0.1,0,0.1,0.1,0.1C47.1,69.4,47.2,69.4,47.1,69.2C47.2,69.2,47.2,69.1,47.1,69.2z M47.2,69.5
			c0,0-0.1,0.1-0.2,0.2c0,0.2,0,0.2,0.1,0.2c0.1,0,0.1-0.1,0.2-0.2C47.3,69.7,47.3,69.6,47.2,69.5z M47.1,70.2L47.1,70.2
			c0,0.2,0,0.2,0,0.2C47.2,70.4,47.2,70.4,47.1,70.2C47.3,70.3,47.2,70.2,47.1,70.2z M48.2,71.7c-0.1-0.1-0.1-0.4-0.1-0.6
			c-0.1-0.4-0.3-0.6-0.3-0.2c0,0.2,0,0.2-0.2,0.2c-0.3-0.1-0.5,0.2-0.2,0.2c0.5,0.1,0.7,0.2,0.6,0.7c0,0.2,0,0.4,0.1,0.4
			c0.1,0,0.1,0,0,0.1c-0.1,0.1-0.1,0.1-0.2,0c-0.2-0.2-0.3,0-0.2,0.2c0.1,0.1,0.2,0.2,0.3,0.1c0.1,0,0.2,0.1,0.2,0.2
			c0,0.2-0.1,0.2-0.2,0.1c-0.2-0.1-0.2,0-0.1,0.1c0.1,0.2,0.4,0.2,0.5,0C48.4,72.7,48.3,72.2,48.2,71.7z M47.6,59.7
			c0.2-0.5,0-0.9-0.2-0.8c-0.2,0.1-0.2,0.2-0.1,0.2c0.1,0.1,0.1,0.2,0,0.4c0,0.2,0,0.2,0.1,0.2c0.1,0,0.1,0.2,0,0.3
			c0,0.2,0,0.3,0.2,0.3c0.1,0,0.2-0.1,0.1-0.2C47.5,60.2,47.5,60,47.6,59.7z M48.2,68.3c0-0.2,0-0.2-0.2-0.1c-0.2,0.1-0.3,0-0.3-0.2
			c0,0,0-0.2,0-0.2c0-0.2-0.1-0.3-0.1-0.4c0-0.1,0-0.2,0-0.2c0.2-0.2,0-0.9-0.2-1c-0.1,0-0.2,0.1-0.2,0.2c-0.1,0,0,0.1,0.1,0.1
			c0,0,0.1,0.2,0,0.4c0,0.4,0,0.7,0.2,1.1c0,0.1,0,0.3-0.1,0.5c-0.1,0.3,0,0.4,0.2,0.3c0.1-0.1,0.2-0.1,0.3-0.1
			C48,68.5,48.1,68.4,48.2,68.3z M47.5,60.9c0.1-0.1,0-0.2,0-0.2c-0.1,0-0.2,0-0.2,0.2c-0.1,0.2,0.1,0.5,0.2,0.5
			c0.1,0,0.1-0.1,0-0.2C47.5,61.1,47.5,61.1,47.5,60.9z M47.6,65.1c-0.2,0-0.4,0.5-0.3,0.5C47.4,65.7,47.8,65.3,47.6,65.1
			C47.7,65.1,47.6,65.1,47.6,65.1z M47.6,63.9c-0.1-0.2-0.1-0.4,0-0.4c0.1-0.1,0.1-0.2,0-0.2c0-0.1,0-0.3,0-0.6c0.1-0.2,0-0.5,0-0.5
			c-0.1,0-0.1-0.2,0-0.4c0.1-0.2,0-0.3-0.1-0.3c-0.2,0-0.2,0.1-0.2,0.4c0,0.2,0,0.4,0.1,0.5c0.1,0,0.1,0.2,0,0.3
			c0,0.2,0,0.2,0.1,0.2s0.1,0,0,0.1c-0.1,0.1-0.2,1.2-0.1,1.5c0,0.2,0.2,0.2,0.2,0C47.7,64.4,47.6,64.1,47.6,63.9z M47.5,64.8
			c-0.1,0-0.2,0-0.2,0.1c0,0.1,0,0.1,0.1,0.1C47.5,65,47.5,65,47.5,64.8C47.5,64.8,47.5,64.8,47.5,64.8z M47.6,57.8
			c-0.1-0.1-0.1-0.2,0-0.5c0-0.2,0-0.4-0.1-0.5c-0.1,0-0.2,0.1-0.2,0.5c-0.1,0.2,0,0.4,0,0.5c0.1,0,0.1,0.2,0,0.4
			c-0.1,0.2-0.1,0.5,0,0.5c0.1,0,0.2-0.2,0.2-0.4C47.6,58.1,47.6,57.8,47.6,57.8z M47.5,65.8c-0.1,0-0.1,0.1-0.1,0.2
			c0.1,0,0.1,0.1,0.1,0.1C47.5,66.1,47.5,66,47.5,65.8C47.6,65.9,47.5,65.8,47.5,65.8z M47.5,71.7C47.5,71.7,47.5,71.7,47.5,71.7
			c-0.1,0.2,0,0.2,0,0.2C47.5,71.8,47.6,71.8,47.5,71.7C47.5,71.7,47.5,71.7,47.5,71.7z M47.7,54.8c0.1-0.7-0.2-0.6-0.2,0.1
			c-0.1,0.3-0.1,0.6,0,0.6c0.1,0.1,0.1,0.2,0,0.4c-0.1,0.2-0.1,0.4,0,0.4c0.2,0.1,0.2,0,0.2-0.5C47.7,55.4,47.7,55,47.7,54.8z
			 M47.6,53.8c-0.1,0-0.2,0.2-0.2,0.2c-0.1,0.2,0,0.2,0,0.2c0.1,0,0.2-0.1,0.2-0.2C47.7,53.9,47.7,53.8,47.6,53.8z M47.6,52.9
			c-0.1,0.1-0.2,0.2-0.2,0.2c0.1,0.2,0.2,0.2,0.2-0.1C47.7,52.8,47.7,52.8,47.6,52.9z M48.1,69C48.2,69,48.3,69,48.1,69
			c0.1-0.2-0.1-0.2-0.2-0.2c-0.4,0-0.4,0-0.3,0.3c0,0.2,0.2,0.3,0.3,0.1C47.9,69,48,69,48.1,69z M47.8,70C47.7,70,47.7,69.9,47.8,70
			c0.1-0.2,0.1-0.5-0.1-0.5c-0.2,0-0.2,0.5-0.1,0.8c0.2,0.3,0.5,0.2,0.3-0.1C48,70,47.9,70,47.8,70z M47.7,51.5
			c-0.1,0-0.2,0-0.2,0.1s0,0.1,0.1,0.1C47.7,51.7,47.8,51.7,47.7,51.5C47.8,51.5,47.7,51.5,47.7,51.5z M47.5,52.4
			c0,0.1,0,0.2,0.1,0.2c0,0.1,0.1,0.2,0.2,0.1c0,0,0-0.1-0.1-0.2C47.7,52.4,47.6,52.4,47.5,52.4z M47.8,51.2c-0.1,0-0.2,0-0.2,0.1
			c0,0.1,0,0.1,0.1,0.1S47.9,51.4,47.8,51.2C47.9,51.2,47.8,51.2,47.8,51.2z M47.9,65.6c0,0-0.1,0.1-0.1,0.2c-0.1,0,0,0.1,0.1,0.1
			C47.9,65.8,48,65.7,47.9,65.6C48,65.7,48,65.6,47.9,65.6z M48,47.8c-0.1,0.2-0.1,0.2,0.1,0.2c0.1-0.1,0.2-0.2,0.1-0.2
			C48,47.6,48,47.7,48,47.8z M48.2,73.4c-0.2,0-0.3,0.2-0.2,0.3c0.2,0.2,0.2,0.2,0.3-0.1C48.4,73.4,48.4,73.4,48.2,73.4z M48.3,56.5
			c-0.1,0-0.1,0.1-0.2,0.2c0,0.1,0.1,0.1,0.1,0.1c0.1,0,0.2-0.1,0.2-0.1C48.4,56.6,48.4,56.5,48.3,56.5z M48.3,58.8
			c-0.1,0-0.2,0.1-0.2,0.1c0,0.1,0,0.2,0.2,0.1c0.1,0,0.2,0,0.2-0.1C48.4,58.8,48.4,58.8,48.3,58.8z M48.1,60.7
			C48.1,60.7,48.2,60.8,48.1,60.7c0.2,0.1,0.2,0,0.2-0.1C48.3,60.4,48.2,60.4,48.1,60.7z M48.2,61.8c0,0-0.1,0.1-0.1,0.2
			c0,0.1,0,0.1,0.1,0.1c0.1,0,0.1-0.1,0.1-0.1C48.3,61.9,48.2,61.8,48.2,61.8z M48.3,62.9c-0.2,0.2-0.2,0.2,0,0.2
			c0.1,0,0.1,0,0.2-0.1C48.4,62.9,48.4,62.9,48.3,62.9z M48.4,55.6c-0.1,0-0.2,0.1-0.2,0.2C48.3,55.9,48.4,55.8,48.4,55.6
			C48.4,55.6,48.4,55.5,48.4,55.6z M48.4,74c-0.1,0.1,0.1,0.5,0.2,0.5c0,0,0.1-0.1,0.1-0.2C48.8,74.2,48.5,73.9,48.4,74z M48.6,49.3
			c-0.2,0.2-0.2,0.5-0.1,0.5c0-0.1,0.1-0.2,0.2-0.3C48.7,49.4,48.7,49.3,48.6,49.3z M48.7,61.4c0,0.1-0.1,0.1-0.1,0.2
			c0.1,0.1,0.1,0.1,0.2,0.1c0,0,0,0,0.1-0.1C48.9,61.4,48.8,61.4,48.7,61.4z M48.9,61.9c-0.1,0-0.2,0.1-0.2,0.2s0,0.1,0.1,0
			C48.9,62.1,48.9,62,48.9,61.9C48.9,61.9,48.9,61.9,48.9,61.9z M48.9,56.9c-0.2,0.1-0.2,0.2-0.1,0.2C48.9,57.1,48.9,57.1,48.9,56.9
			C49,56.9,48.9,56.8,48.9,56.9z M48.8,74.7c-0.1,0.1,0.7,0.9,0.7,0.9s0.1-0.1,0-0.2C49.3,75,48.9,74.6,48.8,74.7z M49.3,66.1
			c-0.1,0-0.2,0.1-0.2,0.2c-0.1,0.1,0,0.2,0.1,0.2c0,0,0.1-0.1,0.2-0.2C49.4,66.1,49.3,66.1,49.3,66.1z M49.4,57.2
			c-0.1,0.1-0.2,0.2-0.1,0.2C49.3,57.6,49.4,57.5,49.4,57.2C49.5,57.1,49.4,57.1,49.4,57.2z M49.7,66.4c-0.2,0.2-0.2,0.2,0,0.2
			c0.1,0,0.1,0,0.2-0.1C49.8,66.4,49.8,66.4,49.7,66.4z M49.8,69.7c-0.1,0-0.2,0.1-0.2,0.2c0,0,0.1,0.1,0.2,0.1c0,0,0.1-0.1,0.2-0.2
			C50,69.8,49.9,69.7,49.8,69.7z M49.8,61.4c-0.2,0-0.2,0.1-0.2,0.2c0.1,0.1,0.2,0.1,0.2-0.1C50,61.4,49.9,61.4,49.8,61.4z
			 M49.8,64.2c-0.2,0.2-0.2,0.2,0.1,0.2c0.2,0,0.2-0.1,0.2-0.2C49.9,64.1,49.8,64.1,49.8,64.2z M49.8,60.7c-0.2,0.1-0.2,0.2-0.1,0.2
			C49.8,60.9,49.9,60.8,49.8,60.7C49.9,60.7,49.9,60.6,49.8,60.7z M49.8,64.6c0,0-0.1,0-0.1,0.2c-0.1,0.1,0,0.2,0,0.2
			c0.1,0,0.2-0.1,0.2-0.2C49.9,64.7,49.9,64.7,49.8,64.6z M49.9,63.7c-0.2,0.1-0.2,0.2-0.1,0.2C49.9,63.8,50,63.7,49.9,63.7
			C50,63.7,50,63.6,49.9,63.7z M49.9,63.2c-0.1,0-0.2,0.1-0.2,0.2s0,0.2,0.1,0.1C49.9,63.4,50,63.4,49.9,63.2
			C50,63.2,50,63.2,49.9,63.2z M49.9,67.6c-0.1,0-0.1,0.1-0.2,0.2c0,0.1,0,0.2,0.1,0.2c0.1,0,0.2-0.1,0.2-0.2
			C50,67.6,50,67.6,49.9,67.6z M50.1,78C50.1,78,50,77.9,50.1,78c-0.2-0.1-0.2,0-0.3,0.2c0,0.2,0,0.2,0.2,0.2c0.1,0,0.2-0.1,0.2-0.2
			C50,78.2,50,78,50.1,78z M50,68.5c-0.2,0.2-0.2,0.2,0,0.2C50,68.7,50.1,68.7,50,68.5C50.1,68.5,50.1,68.5,50,68.5z M50.1,77.4
			c0,0-0.1,0.1-0.2,0.2c0,0.1,0,0.2,0.1,0.2c0.1,0,0.2-0.1,0.2-0.2C50.3,77.4,50.2,77.4,50.1,77.4z M50.1,76.6L50.1,76.6
			c-0.1,0.2-0.1,0.2,0,0.2c0,0,0.1-0.1,0.2-0.2C50.3,76.6,50.2,76.6,50.1,76.6z M50.1,81c0,0.2,0.1,0.2,0.1,0.2
			c0.1-0.1,0.2-0.2,0.2-0.2C50.3,80.8,50.2,80.8,50.1,81z M50.3,80.3c0,0.2,0.1,0.2,0.2,0c0.1-0.1,0.1-0.2,0.1-0.2
			C50.4,80,50.3,80.2,50.3,80.3z M50.8,78.3c0-0.1,0-0.5,0.1-0.8c0.1-0.4,0.1-0.8,0-0.8c0-0.1,0-0.2,0.1-0.2c0.2,0,0.2,0,0.1-0.2
			c-0.1-0.1-0.2-0.2-0.2-0.2c-0.1,0-0.2,0.4-0.1,0.5c0.1,0,0,0.3-0.1,0.6c-0.1,0.2-0.2,0.7-0.2,0.9c0,0.2,0,0.6,0,0.8
			c-0.1,0.6,0.1,0.5,0.2-0.2C50.8,78.7,50.8,78.4,50.8,78.3z M51,73.2c-0.1,0-0.2,0.1-0.2,0.2c-0.1,0.1,0,0.2,0.1,0.2
			C51,73.4,51,73.4,51,73.2L51,73.2z M51.2,74.4c-0.1,0-0.2,0-0.1,0.2c0,0.2,0.2,0.2,0.2,0C51.3,74.4,51.3,74.4,51.2,74.4z
			 M51.2,71.2c0,0-0.1,0.2-0.1,0.2c-0.1,0.2,0.1,0.3,0.2,0.1C51.5,71.4,51.4,71.2,51.2,71.2z M51.8,73.1c-0.2-0.1-0.2-0.5,0-0.5
			c0.2-0.1,0.3-0.2,0.1-0.2c-0.2,0-0.2-0.1,0.2-0.2l0.3-0.2l-0.2-0.1c-0.3,0-0.2-0.7,0.2-0.8c0.2-0.1,0.2-0.1,0.1-0.3
			c-0.1-0.2-0.2-0.3-0.2-0.3s-1,3.6-1,3.7c0,0,0.1-0.2,0.2-0.4c0.2-0.2,0.3-0.4,0.5-0.5C52.1,73.2,52.1,73.1,51.8,73.1z M51.7,70.8
			c-0.1,0-0.2,0-0.2,0.1c0,0.1,0,0.1,0.1,0.1C51.7,70.9,51.7,70.8,51.7,70.8C51.7,70.8,51.7,70.7,51.7,70.8z M53.1,69.4
			c0.1-0.2,0.1-0.2-0.1-0.2C53,69,53,68.9,53.1,68.3c0.2-0.8,0.2-0.8,0.4-0.7c0.1,0.1,0.2,0.1,0.2,0C54,67.4,54,67.4,54,67
			c-0.1-0.4-0.1-0.5,0.2-0.5c0.2-0.2,0.2-0.2,0.1-0.3C54,66.1,54,66,54.3,65.9c0.2-0.1,0.4-0.2,0.6-0.2c0.2,0,0.2-0.1,0.2-0.2
			c-0.1-0.2-0.7-0.1-0.9,0.1c-0.2,0.2-0.1,0,0.2-0.3c0.2-0.2,0.2-0.3,0.2-0.5s0-0.3-0.1-0.3c-0.2,0,0-0.3,0.3-0.5
			c0.4-0.3,0.5-0.5,0.3-0.8c-0.2-0.2-0.1-0.4,0.1-0.3c0.2,0.1,0.5-0.3,0.5-0.5c0-0.1,0.1-0.2,0.2-0.2c0.1-0.1,0.1-0.1,0.1,0
			s0.1,0.2,0.2,0.2c0.1-0.1,0.2-0.1,0.2-0.2c0.1-0.2-0.1-0.5-0.2-0.4c-0.1,0.1-0.2,0-0.2-0.2c-0.2-0.3-0.2-0.4,0.1-0.4
			c0.2,0,0.2-0.1,0.3-0.2c0-0.1-0.1-0.2-0.2-0.2c-0.1,0-0.2-0.1-0.1-0.4c0.1-0.2,0.1-0.3,0-0.3c-0.1,0-0.4,0.8-0.7,1.5
			c-0.1,0.2-0.2,0.5-0.2,0.5c-0.1,0-0.2,0.2-0.2,0.5c-0.1,0.3-0.2,0.5-0.2,0.6c-0.1,0-0.3,0.7-0.7,1.5c-0.2,0.8-0.5,1.4-0.6,1.5
			c-0.1,0-0.1,0.1,0,0.1c0.1,0.1,0.1,0.2-0.1,0.2c-0.2,0.1-0.2,0.1-0.1,0.2c0.2,0.1,0.2,0.3,0,0.3c-0.1,0-0.3,0.5-0.5,1.2
			c-0.2,0.6-0.5,1.3-0.5,1.5c-0.2,0.4-0.2,0.4,0.2,0.4c0.2,0,0.2-0.1,0.3-0.3C52.9,69.7,53.1,69.5,53.1,69.4z M52.5,78.6
			c-0.1,0-0.1,0.1-0.2,0.2c0,0.1,0.1,0.1,0.1,0.1c0.1,0,0.2,0,0.2-0.1S52.6,78.6,52.5,78.6z M52.7,74.6c-0.1,0-0.1,0-0.2,0.1
			c0,0.1,0.1,0.1,0.1,0.1C52.7,74.7,52.8,74.7,52.7,74.6C52.8,74.6,52.8,74.6,52.7,74.6z M52.8,75.4c0,0.1,0,0.2,0.2,0.2
			c0.1,0,0.2-0.1,0.2-0.2C53.2,75.2,53,75.3,52.8,75.4z M53.5,69.7c-0.1,0-0.2,0.1-0.2,0.2c-0.1,0.1,0,0.2,0.1,0.2
			c0.1-0.1,0.2-0.2,0.2-0.2C53.6,69.7,53.6,69.7,53.5,69.7z M53.8,63.8c0.2,0,0.2,0.2,0,0.5c-0.1,0.1-0.1,0.2,0,0.2
			c0,0,0,0.1-0.1,0.2c-0.3,0.4-0.4,0.2-0.2-0.4C53.6,63.9,53.6,63.8,53.8,63.8z M53.6,70.7c-0.1,0-0.2,0.1-0.1,0.2
			c0,0,0,0.1,0.1,0.1C53.6,70.9,53.7,70.8,53.6,70.7L53.6,70.7z M53.8,68.8c-0.1,0-0.2,0-0.2,0.1c0,0.1,0,0.1,0.1,0.1
			C53.8,69,53.9,69,53.8,68.8C53.9,68.8,53.9,68.8,53.8,68.8z M53.9,71.8c-0.1,0-0.2,0.1-0.2,0.1c0,0.1,0,0.2,0.1,0.2
			C53.9,72,54,72,53.9,71.8C54,71.8,53.9,71.8,53.9,71.8z M54.1,68.3C54,68.3,54,68.3,54.1,68.3c-0.1,0.2-0.1,0.2,0,0.2
			C54.2,68.4,54.2,68.4,54.1,68.3C54.2,68.3,54.1,68.3,54.1,68.3z M54.5,67.1c0.2,0,0.2,0,0.2-0.2c0-0.1,0-0.2,0-0.2
			c0.1-0.2-0.1-0.1-0.3,0.2c-0.2,0.3-0.4,0.8-0.2,0.8c0.1,0,0.2-0.2,0.2-0.3C54.4,67.2,54.5,67.1,54.5,67.1z M54.4,71.1
			c-0.1,0-0.1,0.1-0.1,0.2C54.4,71.4,54.5,71.4,54.4,71.1C54.5,71.1,54.5,71,54.4,71.1z M54.5,64.9c0.2,0,0.2,0.1,0,0.2
			c-0.1,0.1-0.2,0-0.2,0C54.5,65,54.5,64.9,54.5,64.9z M54.6,69C54.6,69,54.5,69,54.6,69c0,0.2,0,0.2,0.1,0.2
			C54.7,69.1,54.7,69.1,54.6,69C54.8,69,54.7,69,54.6,69z M54.8,68.1c-0.1,0-0.2,0.1-0.2,0.2c0,0.1,0,0.2,0.1,0.1
			C54.8,68.4,54.9,68.3,54.8,68.1C54.9,68.1,54.9,68.1,54.8,68.1z M54.9,67.7c-0.1,0-0.1,0.1-0.1,0.2c-0.1,0.1,0,0.1,0.1,0.1
			c0.1,0,0.1-0.1,0.1-0.1C54.9,67.7,54.9,67.7,54.9,67.7z M55,66c-0.2,0.1-0.2,0.2-0.2,0.3c0,0.2,0.1,0.2,0.2-0.1
			C55,66,55,65.9,55,66z M55,67.2C55,67.2,55,67.2,55,67.2c-0.1,0.2,0,0.2,0.1,0.2C55,67.4,55.1,67.4,55,67.2
			C55,67.2,55,67.2,55,67.2z M55.7,62C55.8,62,55.9,62,55.7,62c0.1,0.2,0.1,0.2,0,0.2c-0.1,0-0.2,0-0.2,0
			C55.6,62.1,55.6,62.1,55.7,62z M56.3,62.8c-0.1,0-0.2,0.1-0.2,0.2c0,0.1,0,0.1,0.1,0.1C56.3,63.1,56.4,63,56.3,62.8
			C56.4,62.9,56.4,62.8,56.3,62.8z M56.9,59.7c0.2-0.2,0.2-0.2,0-0.3c-0.1-0.1-0.1-0.2,0-0.2c0.2-0.1,0.2-0.1,0.1-0.2
			C56.8,59,56.9,59,57.1,59s0.2-0.1,0.3-0.2c0.1-0.1,0.2-0.1,0.3,0c0.1,0.1,0.2,0.1,0.2,0c0-0.2-0.2-0.3-0.4-0.3
			c-0.2,0-0.3-0.4-0.2-0.8c0.1-0.1,0.2-0.2,0.3-0.2c0.3-0.1,0.4-0.2,0.2-0.5c0-0.2-0.1-0.4,0-0.5c0.1-0.3,0.1-0.3,0.2-0.1
			c0,0.2,0.1,0.2,0.2,0.3c0.2,0,0.2,0,0.1-0.2c0-0.2,0-0.3,0.2-0.5c0.2-0.2,0.2-0.2,0.1-0.3c-0.2-0.2-0.2-0.2,0-0.2
			c0.2-0.1,0.3-0.2,0.1-0.2c-0.2,0-0.2-0.2,0-0.5c0.1-0.1,0.1-0.1,0.1,0.1c-0.1,0.1,0,0.2,0.1,0.2c0.1,0,0.2-0.4,0.1-0.5
			s0.1-0.7,0.3-0.8c0.3-0.1,0.6-0.7,0.4-0.8c-0.1-0.1-0.1-0.2-0.1-0.2c0.1,0,0.2-0.1,0.2-0.1s0.2,0,0.2-0.1c0,0,0-0.2,0-0.3
			c-0.2-0.4-0.1-0.4,0.2-0.4s0.3-0.2,0.2-0.3c-0.1,0,0-0.2,0.2-0.5c0.2-0.4,0.4-0.8,0.3-0.9c-0.2-0.1,0-0.5,0.2-0.4
			c0.2,0,0.2,0,0.2-0.1s-0.1-0.1-0.2-0.1c-0.1,0-0.2-0.1-0.1-0.2c0-0.1,0.1-0.2,0.1-0.2c0.2,0,0.9-0.9,0.8-1c-0.1,0-0.2,0.1-0.3,0.2
			L61.3,49l0.1-0.2c0.1-0.2,0.2-0.3,0.3-0.4c0.4-0.2,0.7-0.8,0.3-0.7c-0.1,0.1-0.2,0.1-0.1-0.1c0-0.2,0.1-0.2,0.2-0.2
			c0,0,0.2,0,0.2-0.1c0.2-0.2,0.2-0.2,0.2-0.4c-0.2-0.4-0.1-0.7,0.1-0.7c0.1,0.1,0.2-0.1,0.3-0.3c0.2-0.2,0.3-0.3,0.4-0.4
			c0.1-0.1,0.1-0.1,0-0.2c-0.2-0.1-0.2-0.2,0.1-0.4c0.2-0.2,0.2-0.3,0.2-0.5c-0.1-0.2-0.1-0.3,0-0.3c0.1-0.1,0.1,0,0.2,0.1
			c0.1,0.2,0.1,0.2,0.3-0.7c0.2-0.4,0.3-0.8,0.5-0.9c0.3-0.3,0.4-0.6,0.2-0.7c-0.1,0-0.1-0.1,0.1-0.2c0.1-0.1,0.1-0.2,0-0.2
			c-0.1-0.1-0.1-0.1,0.1-0.2c0.1-0.1,0.2-0.3,0.3-0.6c0.1-0.2,0.2-0.5,0.4-0.7c0.2-0.3,0.2-0.5-0.2-0.6c-0.1,0-0.2,0.1-0.2,0.4
			c-0.1,0.2-0.2,0.4-0.2,0.4c0,0-0.2,0.5-0.4,1c-0.3,0.8-0.3,1-0.2,1c0.1,0,0.2,0,0.1,0.1c0,0.1-0.1,0.1-0.2,0.2
			c-0.1,0-0.2-0.1-0.2-0.2c0,0,0-0.1-0.1-0.1s-0.4,0.7-0.7,1.4c-0.1,0.2-0.2,0.3-0.2,0.3c-0.1,0-0.2,0.4-0.3,0.8
			c-0.2,0.5-0.2,0.8-0.3,0.8c-0.1,0-0.2,0.1-0.2,0.2c0,0.2-0.1,0.3-0.2,0.4c0,0.1-0.2,0.3-0.2,0.6c-0.2,0.4-0.5,1.1-0.8,1.6
			c-0.3,0.5-0.9,2.2-0.8,2.3c0.1,0.1,0.1,0.2,0,0.2c0,0-0.1,0,0-0.1c0-0.2,0-0.2-0.2,0c-0.1,0-0.2,0.5-0.4,0.8
			c-0.2,0.4-0.3,0.8-0.4,0.8c-0.1,0.1-0.2,0.3-0.2,0.6c-0.1,0.2-0.2,0.5-0.2,0.6c-0.1,0-0.3,0.6-0.6,1.2c-0.2,0.5-0.4,1.2-0.5,1.2
			c-0.1,0.2-0.5,1.1-0.8,1.8c-0.4,1.3-0.7,1.9-0.8,1.9c-0.2,0.1-0.2,0.2,0.1,0.3c0.2,0,0.2,0.1,0.1,0.2c0,0.1-0.1,0.2,0,0.2
			c0.1,0.1,0.2-0.3,0.2-0.5C56.7,60,56.8,59.8,56.9,59.7z M56.4,62.4C56.3,62.4,56.3,62.5,56.4,62.4c-0.2,0.2-0.1,0.2,0,0.2
			C56.4,62.6,56.4,62.6,56.4,62.4C56.4,62.4,56.4,62.4,56.4,62.4z M56.4,65.7C56.4,65.7,56.3,65.7,56.4,65.7c-0.2,0.2-0.1,0.2,0,0.2
			c0.1-0.1,0.2-0.2,0.2-0.2S56.4,65.7,56.4,65.7z M56.8,62.7c-0.1,0.1-0.2,0.2-0.2,0.3c0,0.1,0,0.2-0.1,0.2
			c-0.1,0.1-0.2,0.1-0.2,0.2c-0.1,0.3,0.3,0,0.4-0.3C56.8,62.8,56.8,62.7,56.8,62.7z M56.7,61.7c-0.1,0.1-0.1,0.2-0.1,0.2
			C56.7,62.1,56.8,62,56.7,61.7C56.8,61.6,56.8,61.6,56.7,61.7z M56.8,60.8c-0.1-0.1-0.2,0.1-0.2,0.3c-0.1,0.2-0.1,0.3,0,0.3
			c0.1-0.1,0.2-0.2,0.2-0.3C56.9,61,56.9,60.8,56.8,60.8z M56.8,64.7c-0.2,0.1-0.2,0.2,0,0.2C56.8,64.8,56.8,64.7,56.8,64.7
			C56.9,64.6,56.8,64.6,56.8,64.7z M57.3,60.5c0.2-0.1,0.2-0.4,0.1-0.5c-0.1-0.1-0.2,0-0.2,0.3c0,0.2,0,0.5-0.1,0.5
			c0,0.1,0.1,0.1,0.1,0.1c0.1,0,0.1-0.1,0.1-0.2C57.2,60.7,57.2,60.6,57.3,60.5z M57.3,61.5c-0.1,0-0.2,0.1-0.2,0.2
			c0,0.1,0,0.1,0.1,0.1c0.1,0,0.2-0.1,0.2-0.1C57.4,61.6,57.3,61.5,57.3,61.5z M57.6,60.7c-0.1,0-0.2,0.1-0.2,0.2
			c-0.1,0.2,0.2,0.1,0.3-0.1C58,60.5,57.9,60.5,57.6,60.7z M57.8,59.1c-0.1,0-0.2,0.1-0.2,0.2C57.5,59.4,57.8,59.4,57.8,59.1
			C57.9,59.1,57.8,59,57.8,59.1z M57.8,61.1c-0.2,0.1-0.2,0.2-0.1,0.2C57.8,61.2,57.9,61.1,57.8,61.1C57.9,61.1,57.8,61,57.8,61.1z
			 M58,60.1c-0.1,0-0.2,0.1-0.2,0.1c0,0.1,0,0.2,0.1,0.2C58,60.3,58,60.2,58,60.1C58.1,60.1,58,60.1,58,60.1z M58.1,59.5
			c-0.2,0.2-0.2,0.3-0.1,0.3c0.1,0,0.2-0.1,0.2-0.2C58.4,59.4,58.3,59.4,58.1,59.5z M58.7,56.9c0.2-0.2,0.4-0.4,0.5-0.8
			c0-0.2-0.2-0.2-0.2,0c-0.1,0.1-0.2,0.2-0.2,0.2c-0.1,0.1-0.1,0.1,0,0.2c0.2,0.1,0.1,0.2-0.2,0.5c-0.1,0.1-0.2,0.2-0.3,0.4
			c-0.1,0.3,0,0.3,0.2,0.1c0.2-0.2,0.2-0.2,0.1-0.2C58.5,57.1,58.5,57.1,58.7,56.9z M58.3,58.9c-0.2,0.2,0,0.4,0.2,0.2
			c0.1-0.2,0.2-0.2,0.1-0.2C58.5,58.8,58.4,58.8,58.3,58.9z M59,57.6c-0.1,0-0.2,0.2-0.2,0.5c-0.1,0.3-0.1,0.5-0.1,0.5
			c0.1,0,0.2-0.2,0.3-0.5C59.1,57.8,59.1,57.6,59,57.6z M59.2,57c-0.1,0-0.1,0.1-0.2,0.2c0,0.1,0,0.2,0.1,0.2c0.1,0,0.2-0.1,0.2-0.2
			S59.2,57,59.2,57z M59.3,55.6c-0.1,0-0.1,0.1-0.1,0.2l0.1,0.1c0.1,0,0.1-0.1,0.1-0.1C59.4,55.7,59.4,55.6,59.3,55.6z M59.4,55.3
			C59.2,55.4,59.2,55.4,59.4,55.3c0.1,0.1,0.1,0.1,0.2,0C59.6,55.2,59.5,55.2,59.4,55.3z M59.6,54.8c-0.2-0.2-0.2-0.2-0.2,0.1
			c-0.1,0.2,0,0.3,0.1,0.2c0.1,0,0.2,0,0.2-0.1C59.7,55,59.6,54.8,59.6,54.8z M59.6,58.1C59.5,58.1,59.6,58.2,59.6,58.1
			c0.2,0,0.3-0.1,0.3-0.1C60,57.8,59.7,57.9,59.6,58.1z M59.8,56.8c-0.1,0-0.2,0.1-0.2,0.1c0,0.1,0,0.1,0.1,0.1
			C59.8,56.8,59.9,56.8,59.8,56.8C59.9,56.8,59.9,56.8,59.8,56.8z M60.1,53.7c0.1,0,0.2,0.1,0.1,0.2c0,0.2,0,0.2,0.1,0.2
			c0.2-0.2,0.2-0.4,0.1-0.5C60.2,53.5,60.1,53.5,60.1,53.7c-0.3,0.2-0.5,0.4-0.2,0.4c0,0,0.1-0.1,0.1-0.2
			C60,53.8,60.1,53.7,60.1,53.7z M59.9,54.5c-0.1,0-0.2,0.1-0.2,0.2s0,0.1,0.1,0.1s0.1-0.1,0.2-0.1C60,54.6,59.9,54.5,59.9,54.5z
			 M60,48.8C60.1,48.8,60.1,48.9,60,48.8c0.1,0.2,0,0.2-0.1,0.2c0,0-0.1-0.1-0.1-0.2C59.9,48.9,59.9,48.8,60,48.8z M60,56.2
			c-0.1,0-0.2,0.1-0.2,0.1c0,0.1,0,0.2,0.1,0.2C60,56.4,60.1,56.4,60,56.2C60.1,56.2,60.1,56.2,60,56.2z M60.2,49.7
			c-0.1,0.1-0.2,0.2-0.2,0.2c-0.1,0-0.2-0.1-0.1-0.2C60,49.5,60.2,49.5,60.2,49.7z M60.2,49.2C60.3,49.1,60.4,49.1,60.2,49.2
			c0.1,0.1,0,0.2,0,0.2c-0.1,0-0.2-0.1-0.2-0.1S60.1,49.2,60.2,49.2z M60.8,48c0.1,0,0.1,0,0.1,0.2c0,0.1-0.1,0.2-0.2,0.2
			c-0.1,0-0.2,0.2-0.2,0.3c0,0.2-0.1,0.3-0.2,0.3c-0.1,0-0.1-0.1-0.1-0.2C60.3,48.5,60.7,48,60.8,48z M60.4,54.9
			c-0.1,0.1-0.1,0.2-0.1,0.2c0.1,0.2,0.2,0.2,0.2-0.2C60.6,54.8,60.6,54.8,60.4,54.9z M60.6,56.1c-0.1,0-0.2,0.1-0.2,0.2
			c0,0,0.1,0.1,0.2,0V56.1C60.6,56.1,60.6,56.1,60.6,56.1z M60.8,52.4c-0.1-0.1,0.2-0.5,0.4-0.7c0.1,0,0.1-0.1,0-0.2
			c-0.2-0.1-0.4,0.2-0.7,1s-0.2,1,0.2,0.3C60.8,52.8,60.8,52.5,60.8,52.4z M60.6,53.8c0,0-0.1,0.1-0.1,0.2c0,0.1,0.1,0.1,0.1,0.1
			c0.1,0,0.2-0.1,0.1-0.1C60.6,53.8,60.6,53.8,60.6,53.8z M60.6,54.5C60.6,54.5,60.6,54.5,60.6,54.5c-0.2,0.2-0.1,0.2,0,0.2
			C60.6,54.7,60.7,54.7,60.6,54.5C60.8,54.5,60.7,54.5,60.6,54.5z M60.7,54.2C60.6,54.2,60.6,54.2,60.7,54.2c0,0.2,0,0.2,0,0.2
			C60.8,54.4,60.8,54.4,60.7,54.2C60.9,54.2,60.8,54.2,60.7,54.2z M61,53.1c-0.1,0.2,0,0.2,0,0.2c0.1-0.1,0.1-0.2,0.1-0.3
			C61.1,52.8,61.1,52.9,61,53.1z M61.3,51c0,0.2,0,0.2,0.2,0c0.2-0.1,0.2-0.2,0.2-0.2C61.6,50.7,61.4,50.8,61.3,51z M61.6,45.8
			c0-0.2,0.1-0.2,0.2-0.2c0.2,0,0,0.7-0.2,0.8c-0.1,0-0.2,0.2-0.2,0.3c-0.1,0.1-0.1,0,0-0.3C61.5,46.2,61.6,45.9,61.6,45.8z
			 M62.3,50.1c0.1,0.2,0.2,0.1,0.2-0.2l0.1-0.5l-0.2,0.3c-0.3,0.2-0.5,0.2-0.2-0.2c0.1-0.1,0.1-0.2,0-0.2c-0.1-0.1-0.3,0.2-0.4,0.6
			c-0.1,0.2-0.2,0.4-0.2,0.5c-0.2,0.2-0.2,0.2,0,0.2c0.1,0,0.2-0.2,0.2-0.3C61.8,50.1,62.1,50,62.3,50.1z M61.6,52
			c-0.2,0-0.2,0-0.2,0.2c0.1,0.2,0.2,0.2,0.1,0.3c0,0.1,0.1,0.2,0.1,0.2c0.1,0,0.2-0.2,0.2-0.3C61.9,52,61.9,51.9,61.6,52z
			 M61.8,51.5c0,0-0.1,0.1-0.1,0.2c0,0,0,0.1,0.1,0.1C61.9,51.8,61.9,51.7,61.8,51.5L61.8,51.5z M62,50.8c0-0.1-0.1,0.1-0.2,0.2
			c0,0.2,0,0.2,0.1,0.2c0.1,0,0.1-0.1,0.2-0.2C62.1,50.9,62.1,50.8,62,50.8z M62,52.3c0,0.2,0.1,0.2,0.2,0.1
			c0.1-0.1,0.2-0.2,0.1-0.2C62.2,52,62,52.1,62,52.3z M62.3,44.7c0.1,0.1,0.1,0.2,0,0.4c-0.2,0.4-0.3,0.4-0.2,0
			C62.1,44.8,62.2,44.7,62.3,44.7z M62.9,48c0,0-0.4,0.2-0.5,0.3c0,0.2,0.2,0.1,0.3-0.1C62.9,48.1,62.9,48.1,62.9,48z M62.5,44
			c0.1-0.1,0.2-0.2,0.2-0.2c0.4-0.8,0.6-1.2,0.7-1.3l0.1-0.2c0.2-0.5,0.2-0.5,0.2-0.2c0,0.2-0.1,0.5-0.2,0.5c-0.1,0-0.2,0.2-0.2,0.3
			c-0.1,0.2-0.2,0.4-0.2,0.4c-0.1,0.1-0.2,0.4-0.3,0.6c-0.1,0.4-0.2,0.5-0.2,0.3C62.4,44.1,62.4,44.1,62.5,44z M62.9,49L62.9,49
			c-0.1,0.2-0.1,0.2,0,0.2c0.1,0,0.1-0.1,0.2-0.2C63,49.1,62.9,49,62.9,49z M63.2,47c0.1,0,0.2-0.2,0.2-0.2c0-0.2,0.1-0.3,0.2-0.3
			c0.1,0,0.1-0.1,0.1-0.1c0-0.1-0.1-0.2-0.2-0.2c-0.2,0.1-0.2,0.1-0.2,0.3c0,0.2-0.1,0.3-0.2,0.4c-0.2,0.1-0.2,0.2-0.2,0.3
			c0.1,0.2,0.2,0.2,0.2-0.1C63.1,47.1,63.1,47,63.2,47z M63,47.7c-0.2,0.1-0.2,0.2,0,0.2V47.7C63.2,47.7,63.1,47.7,63,47.7z
			 M62.9,48.5c0,0,0,0.1,0,0.2c-0.1,0,0,0.1,0.1,0.1c0,0,0.1-0.1,0.1-0.2C63,48.5,63,48.5,62.9,48.5z M63.2,49.1
			c-0.1,0-0.1,0.1-0.1,0.2C63.2,49.5,63.3,49.4,63.2,49.1C63.3,49.1,63.3,49.1,63.2,49.1z M63.5,49.3c-0.2,0.1-0.2,0.2-0.1,0.2
			C63.5,49.5,63.6,49.5,63.5,49.3C63.6,49.3,63.5,49.3,63.5,49.3z M64,46.9c-0.2-0.2-0.2-0.2-0.4,0.2c-0.2,0.2-0.1,0.3,0.2,0.1
			C64.1,47.1,64.1,47,64,46.9z M63.8,45.9c-0.1,0-0.2,0.1-0.2,0.2c0,0,0,0.1,0.1,0.1C63.8,46.1,63.9,46.1,63.8,45.9
			C63.9,46,63.9,45.9,63.8,45.9z M63.8,43.7c0.1-0.1,0.2,0,0.1,0.2c-0.1,0.2-0.1,0.2-0.2,0C63.7,43.8,63.7,43.7,63.8,43.7z
			 M63.9,48.9c-0.1,0-0.2,0.1-0.2,0.2c0,0.1,0,0.1,0.1,0.1c0.1,0,0.2-0.1,0.2-0.1C63.9,49,63.9,48.9,63.9,48.9z M64.1,40.7
			c0.1-0.1,0.2-0.2,0.2-0.3c0-0.2,0.1-0.2,0.2-0.1c0.1,0.1,0,0.2-0.2,0.3c-0.1,0.1-0.2,0.4-0.2,0.6c-0.1,0.3-0.2,0.5-0.3,0.3
			C63.7,41.5,63.9,40.8,64.1,40.7z M64.3,44.8c0.1,0.1,0.2,0.2,0.2,0.1c0.1-0.1,0.1-0.1,0-0.2c-0.1,0-0.1-0.3,0.1-0.3
			c0.1,0,0.5-0.5,0.6-0.8c0-0.1,0-0.1-0.1-0.1c-0.2,0-0.5,0.3-0.6,0.6c0,0.1-0.1,0.2-0.2,0.2l-0.1,0.1c0.1,0.1,0,0.2-0.2,0.3
			c-0.2,0.1-0.2,0.2-0.2,0.4c0.1,0.3,0.3,0.2,0.4-0.2C64.2,44.8,64.3,44.8,64.3,44.8z M64.3,45.8c-0.2,0.1-0.3,0.6-0.2,0.6
			c0.1,0,0.2-0.2,0.2-0.3C64.6,45.8,64.6,45.8,64.3,45.8z M64.7,45.2c-0.1,0-0.2,0.1-0.2,0.2C64.6,45.5,64.7,45.5,64.7,45.2
			C64.8,45.2,64.8,45.1,64.7,45.2z M65.2,42.8c0,0-0.1,0.1-0.2,0.2c0,0.1-0.1,0.2-0.1,0.2c-0.1,0-0.2,0.1-0.2,0.2
			c-0.1,0.2,0.1,0.1,0.2-0.1C65.3,43.1,65.3,42.8,65.2,42.8z M65.1,44.1c-0.2,0.2-0.2,0.4-0.1,0.3c0.1,0,0.2-0.1,0.2-0.2
			C65.4,44,65.3,43.9,65.1,44.1z M65.7,41.7c-0.2,0-0.6,0.2-0.6,0.4c0,0.1,0.1,0.1,0.4-0.2C65.7,41.7,65.7,41.7,65.7,41.7z
			 M65.6,45.2C65.5,45.2,65.4,45.3,65.6,45.2c-0.1,0.2-0.1,0.2,0,0.2C65.6,45.4,65.7,45.4,65.6,45.2C65.7,45.2,65.6,45.2,65.6,45.2z
			 M66,39.2c-0.1-0.1-0.1-0.2,0-0.3c0.1-0.2,0.1-0.2,0.2,0c0.2,0.3,0.3,0,0.4-0.7c0-0.2,0.1-0.2,0.2-0.2c0.2,0,0.3-0.2,0.1-0.2
			c-0.1-0.1-0.2-0.2-0.1-0.2c0.1-0.2,0.1-0.2,0-0.2c-0.1,0.1-0.2,0.2-0.2,0.2c0,0.1-0.1,0.2-0.2,0.3c-0.2,0.2-0.2,0.2-0.2,0.2
			c0,0-0.1,0.2-0.2,0.5c-0.3,0.5-0.3,0.8-0.1,0.8c0.1,0,0.2,0,0.2-0.1S66.1,39.2,66,39.2z M66,40.8c-0.2,0-0.2,0-0.2,0.2
			c0.1,0.1,0.2,0.2,0.2,0.2c0,0,0.1-0.1,0.1-0.2C66.2,40.9,66.2,40.8,66,40.8z M66,43.3c-0.1,0-0.2,0.1-0.2,0.2c0,0,0,0.1,0.1,0
			C66,43.5,66.1,43.4,66,43.3C66.1,43.3,66.1,43.3,66,43.3z M65.9,43.8C65.8,43.8,65.8,43.9,65.9,43.8c0,0.2,0,0.2,0,0.2
			C66,44.1,66,44,65.9,43.8C66.1,43.8,66,43.8,65.9,43.8z M66.3,42.1c0.1-0.1,0.2-0.1,0.1-0.2c-0.1-0.1-0.5,0.2-0.5,0.5
			c-0.1,0.1,0,0.2,0.1,0.2c0,0,0.1-0.1,0.2-0.2C66.2,42.3,66.2,42.1,66.3,42.1z M66.3,40.4c-0.1,0-0.2,0.1-0.2,0.2
			C66.1,40.7,66.2,40.6,66.3,40.4C66.7,40.2,66.7,40.2,66.3,40.4z M66.7,40.9c-0.1,0-0.1,0-0.2,0.1c0,0.1,0.1,0.1,0.1,0.1
			C66.7,41.1,66.7,41.1,66.7,40.9C66.7,40.9,66.7,40.9,66.7,40.9z M66.6,42.7c0,0.2,0,0.2,0.1,0.2c0.1-0.1,0.2-0.2,0.2-0.2
			C66.7,42.5,66.7,42.5,66.6,42.7z M66.8,39.5c-0.1,0-0.2,0.1-0.2,0.1c0,0.1,0.1,0.2,0.1,0.2C66.8,39.8,66.9,39.7,66.8,39.5
			C66.9,39.6,66.9,39.5,66.8,39.5z M67.3,38.7c0.1,0,0.2-0.4,0.1-0.5c0-0.1-0.1,0-0.2,0.2c0,0.2-0.2,0.3-0.2,0.3
			c-0.1,0-0.2,0.1-0.2,0.2c0,0.1,0,0.2,0.1,0.2c0.1,0,0.2-0.2,0.2-0.2C67.1,38.8,67.2,38.7,67.3,38.7z M67.1,40.2
			c0,0-0.1,0.1-0.2,0.2c-0.1,0.1-0.1,0.2,0,0.2c0,0,0.1-0.1,0.2-0.2C67.1,40.2,67.1,40.2,67.1,40.2z M67.1,37c0,0-0.1,0,0-0.2
			c0-0.1,0-0.2-0.1-0.2c-0.2,0-0.2,0.4-0.2,0.5c0.2,0.2,0.3,0.2,0.3-0.1C67.3,37.1,67.2,37,67.1,37z M67.5,39.3
			c-0.1,0-0.2,0.1-0.2,0.1c0,0.1,0,0.2,0.1,0.2C67.5,39.5,67.6,39.5,67.5,39.3C67.6,39.3,67.5,39.3,67.5,39.3z M67.5,36.2
			c0,0.2,0,0.2,0.2,0.2c0.2-0.2,0.2-0.2,0-0.3C67.5,35.8,67.4,35.8,67.5,36.2z M67.7,37.5C67.7,37.5,67.8,37.5,67.7,37.5
			c0.2-0.2,0.2-0.2,0.2-0.2C67.8,37.2,67.6,37.3,67.7,37.5z M68,38.4c-0.1,0-0.2,0.1-0.2,0.2c0,0.2,0,0.2,0.1,0.2
			c0.1-0.1,0.2-0.2,0.2-0.2C68.1,38.5,68,38.4,68,38.4z M68,35c-0.2,0-0.2,0.5-0.1,0.5c0.2,0.1,0.2,0,0.2-0.3
			C68.1,35.2,68.1,35,68,35z M68.5,34.1c0.1-0.2,0.1-0.5,0-0.5c-0.1,0-0.2,0.3-0.4,0.8c-0.1,0.4-0.1,0.4,0.2,0.4
			c0.2,0,0.2,0,0.2-0.2C68.5,34.5,68.5,34.3,68.5,34.1z M68.4,32.9c-0.1,0-0.2,0.2-0.2,0.2c0,0.2,0,0.3,0.1,0.2
			c0.1-0.1,0.2-0.2,0.2-0.3C68.5,33,68.4,32.9,68.4,32.9z M68.5,35.9c-0.1,0-0.2,0.1-0.2,0.1c-0.1,0.1,0,0.2,0.1,0.2
			c0.1,0,0.2-0.1,0.2-0.2C68.6,35.9,68.5,35.9,68.5,35.9z M68.8,32c0,0-0.1,0.1-0.1,0.2c-0.1,0.2-0.1,0.2,0,0.2
			c0.1,0,0.2-0.1,0.2-0.2C68.9,32.2,68.9,32,68.8,32z M69,34.5c-0.1,0-0.2,0.1-0.2,0.1c0,0.1,0.1,0.2,0.2,0.2
			C69.1,34.8,69.2,34.7,69,34.5C69.1,34.5,69,34.5,69,34.5z M69.1,32.8C69,32.9,69.1,32.9,69.1,32.8c0.2,0.1,0.2,0,0.3-0.1
			C69.5,32.5,69.2,32.5,69.1,32.8z M70.4,29.2c0-0.2,0.1-0.3,0.2-0.3c0.1-0.1,0.2-0.1,0.1-0.1c-0.1,0-0.2,0-0.2,0.1
			c-0.2,0.1-0.7,1-0.6,1.1c0,0,0.1-0.1,0.2-0.2c0-0.2,0.2-0.3,0.2-0.3C70.3,29.5,70.4,29.4,70.4,29.2z"/>
		<path id="XMLID_279_" class="st2" d="M77.7,57.8c0.1,0.2,0,0.4-0.1,0.5c-0.2,0.2-0.2,0.4-0.3,0.5c-0.1,0.2-0.2,0.5-0.7,1.1
			c-0.1,0.1-0.2,0.2-0.2,0.3s-0.2,0.2-0.2,0.3c-0.2,0.1-0.5,0.5-0.7,0.8c-0.5,0.8-0.9,1.3-1.2,1.6c-0.1,0.1-0.2,0.4-0.3,0.6
			c-0.1,0.2-0.2,0.4-0.2,0.4c0,0-0.2,0.2-0.4,0.5c-0.2,0.3-0.4,0.5-0.4,0.5c-0.1,0-0.2,0.2-0.2,0.5c-0.2,0.2-0.3,0.5-0.4,0.7
			c-0.2,0.2-0.5,0.7-0.8,1.4c-0.1,0.2-0.3,0.7-0.6,1.1c-0.2,0.5-0.6,1.1-0.7,1.4c-0.2,0.5-0.3,0.7-0.5,0.8c-0.2,0.2-0.3,0.3-0.2,0.5
			c0,0.2,0,0.2-0.2,0.4c-0.2,0.2-0.3,0.5-0.4,0.8c-0.2,0.4-0.3,0.6-0.7,1.1c-0.3,0.3-0.6,0.6-0.6,0.7c0,0.2-0.7,1-1.1,1.2
			c-0.2,0.2-0.4,0.2-0.5,0.2c-0.2,0-0.2,0.1-0.2,0.2c-0.1,0.1-0.9,0.1-0.8,0c0-0.1-0.2-0.2-0.6-0.4c-0.6-0.3-0.7-0.4-1.6-1.5
			C62,73.3,62,73,62,72.8c0-0.2,0-0.2,0-0.3c-0.1,0-0.1-0.1-0.1-0.2c0.1-0.1,0.1-0.3,0-0.5c-0.1-0.2-0.1-0.5,0-0.5
			c0.1-0.2,0.2-0.3,0.1-0.4c-0.1,0,0-0.3,0.1-0.6c0.1-0.3,0.1-0.6,0.1-0.6c-0.1-0.1-0.1-0.2,0.1-0.2c0.2-0.2,0.2-0.2,0.1-0.3
			c-0.1,0-0.1-0.3,0-0.6c0-0.3,0-0.5,0-0.5c-0.1,0-0.1-0.2,0-0.3c0.1-0.1,0.2-0.5,0.2-0.7c0.1-0.3,0.2-0.8,0.2-1.2
			c0.1-0.4,0.2-0.7,0.2-0.8c-0.1-0.2,0.3-1.2,0.5-1.5c0.1-0.1,0.2-0.2,0.1-0.3c0-0.1,0.1-0.5,0.2-0.9c0.2-0.5,0.2-0.8,0.2-0.9
			c0-0.1,0.1-0.5,0.2-0.8c0.2-0.4,0.3-0.8,0.3-0.8s0.2-0.5,0.3-1.1c0.2-0.5,0.3-1.1,0.3-1.2c-0.1-0.1,0.1-0.4,0.2-0.7
			c0.2-0.5,1-2.7,1.2-3.5c0.2-0.6,0.5-1.1,0.8-1.1c0.2,0,0.3,0,0.4-0.1c0.1-0.1,0.7,0,0.9,0.2c0.1,0,0.2,0.1,0.3,0
			c0.4-0.1,0.8,0.5,0.7,0.9c0,0.2,0,0.6,0.2,0.8c0.1,0.2,0.2,0.4,0.1,0.5c0,0.1,0,0.2,0.1,0.2c0.1,0.1-0.1,0.7-0.3,0.8
			c-0.1,0.1-0.2,0.2-0.1,0.4c0.1,0.2,0.1,0.2,0,0.3c0,0,0,0.1,0,0.2c0.1,0.1-0.1,0.6-0.3,1.4c-0.2,0.8-0.4,1.2-0.4,1.4
			c0.1,0.2,0.1,0.3-0.2,0.5c-0.2,0.2-0.2,0.2-0.1,0.4c0,0.2,0,0.2-0.1,0.3c-0.1,0.1-0.2,0.2-0.2,0.4c-0.1,0.1-0.2,0.2-0.2,0.3
			c-0.1,0-0.1,0.2,0,0.3c0,0.2,0,0.4-0.2,0.5c-0.2,0.2-0.2,0.3-0.2,0.7c0.1,0.2,0,0.5,0,0.5c-0.1,0-0.1,0.2,0.1,0.2
			c0.1,0.2,0.1,0.2-0.2,0.2c-0.2,0.1-0.2,0.2-0.1,0.2c0.1,0.2,0,0.5-0.2,0.8c-0.1,0-0.2,0.2-0.2,0.4c0,0.2-0.1,0.3-0.2,0.4
			c-0.1,0.2-0.2,0.2-0.2,0.5c0,0.2,0,0.4-0.2,0.8c-0.2,0.5-0.2,0.9-0.4,1.8c-0.1,0.5-0.2,1.1-0.3,1.3c-0.1,0.3-0.1,0.5-0.1,0.6
			c0.1,0,0.1,0.1-0.1,0.2c-0.2,0.2-0.2,0.2-0.1,0.2c0.2,0.2,0.4,0.1,0.6-0.4c0.2-0.5,0.2-0.6,0.3-0.5c0,0.2,0.1,0.2,0.2,0.1
			c0.2-0.2,0.2-0.5,0.1-0.5c-0.1,0-0.1-0.1-0.1-0.2c0.1-0.2,0.2-0.2,0.3-0.1c0.1,0,0.2,0,0.2-0.1c0-0.1,0.1-0.1,0.2-0.1
			c0.2,0.1,0.4-0.2,0.7-1.1c0.1-0.2,0.3-0.5,0.4-0.6c0.2-0.1,0.2-0.2,0.8-1.3c0.2-0.3,0.4-0.7,0.5-0.8c0.1-0.1,0.2-0.3,0.2-0.5
			c0.1-0.1,0.2-0.2,0.2-0.2c0,0,0.2-0.1,0.2-0.2c0.1-0.2,0.2-0.3,0.2-0.3c0.1-0.1,0.2-0.2,0.2-0.4c0-0.2,0.2-0.3,0.2-0.3
			c0.1-0.1,0.2-0.2,0.2-0.3c0.1-0.2,0.2-0.3,0.2-0.3c0.1,0,0.2-0.1,0.2-0.2c0.1-0.2,0.2-0.4,0.3-0.5c0.2-0.1,0.2-0.3,0.3-0.4
			c0-0.2,0.2-0.3,0.3-0.5c0.1-0.1,0.3-0.4,0.5-0.7c0.2-0.3,0.4-0.7,0.5-0.8c0.2-0.2,0.4-0.5,0.6-0.8c0.5-0.6,0.7-0.7,0.4-0.1
			c-0.2,0.2-0.3,0.5-0.4,0.6c-0.1,0.1-0.2,0.2-0.2,0.4c0,0.1-0.2,0.3-0.4,0.5c-0.1,0.2-0.4,0.5-0.5,0.8c-0.2,0.2-0.4,0.6-0.5,0.8
			c-0.3,0.3-0.3,0.3-0.2,0.5c0,0.2,0.1,0.2,0.7-0.2c0,0,0-0.1-0.1-0.2c-0.1-0.2,0-0.2,0.2-0.2c0.4,0,1.1-0.8,0.8-1.1
			c-0.2-0.1-0.2-0.2,0-0.3c0.1-0.2,0.1-0.2,0.2,0c0.2,0.2,0.2,0.2,0.3,0c0.1-0.1,0.2-0.2,0.1-0.4c0-0.2,0.2-0.3,0.4-0.3
			c0.2,0,0.2-0.1,0.3-0.3c0.1-0.2,0.2-0.4,0.2-0.4c0.1,0,0.2-0.2,0.2-0.2c0-0.1,0.2-0.3,0.3-0.5c0.2-0.2,0.5-0.5,0.6-0.6
			c0.2-0.4,1-1.3,1.2-1.5c0.1-0.1,0.1,0.1-0.1,0.5C77.8,57.3,77.7,57.7,77.7,57.8z M63.3,71.8c-0.1,0-0.2,0.1-0.2,0.2
			C62.9,72.1,63.3,72.1,63.3,71.8C63.4,71.8,63.4,71.8,63.3,71.8z M64.1,66.5c0-0.1,0-0.3,0.1-0.5c0.1-0.2,0.1-0.4,0.1-0.4
			c0-0.2,0.2-0.7,0.2-1.2c0.2-0.7,0.2-0.7,0.1-0.6c-0.2,0.1-0.7,1.5-0.6,1.6c0,0-0.1,0.4-0.2,0.8c-0.2,0.5-0.2,0.8-0.2,0.8
			c0,0,0,0.2-0.1,0.5c-0.2,0.5,0.1,0.5,0.2,0C64.1,67,64.2,66.6,64.1,66.5z M64.7,63.4c0,0.2,0.2,0.2,0.3-0.1c0-0.1,0-0.2-0.1-0.2
			c-0.1,0-0.1,0,0-0.1c0.2-0.1,0.3-0.3,0.2-0.5c0-0.1,0-0.2,0-0.3c0-0.2-0.1-0.2-0.2-0.2C64.8,61.9,64.6,63.1,64.7,63.4z M65.1,65.3
			c0.2-0.5,0-0.7-0.2-0.2c-0.2,0.4-0.2,0.8,0,0.8C64.9,65.8,65,65.7,65.1,65.3z M65.3,60.8c0.1,0.2,0.3-0.1,0.6-0.8
			c0.2-0.7,0.2-1.1-0.1-0.7c0,0.1-0.2,0.2-0.2,0.4c-0.1,0.1-0.2,0.2-0.1,0.2c0.1,0,0,0.2-0.1,0.4C65.3,60.5,65.3,60.7,65.3,60.8z
			 M66.1,58.5c-0.2,0.2-0.1,0.5,0.1,0.5c0.1-0.1,0.2-0.2,0.2-0.3C66.5,58.4,66.2,58.4,66.1,58.5z M66.3,58.1
			c0.1,0.1,0.2-0.1,0.3-0.2c0-0.1,0-0.2-0.1-0.2C66.3,57.7,66.2,57.9,66.3,58.1z M66.6,57c0,0.2,0,0.3,0,0.4
			c0.1,0.1,0.3-0.2,0.3-0.3C67,56.8,66.7,56.8,66.6,57z M67.2,69.3c0.1-0.2-0.1-0.2-0.2-0.2C66.9,69.3,67,69.4,67.2,69.3
			C67.1,69.4,67.2,69.4,67.2,69.3z M68.5,66.1c0.1,0.2,0,0.4-0.1,0.2C68.3,66.3,68.4,66.1,68.5,66.1C68.5,65.8,68.5,65.8,68.5,66.1z
			 M70.8,65.1c0.1-0.2-0.2-0.1-0.4,0c-0.2,0.2,0,0.3,0.2,0.2C70.7,65.3,70.8,65.2,70.8,65.1z M71.6,63.4c-0.2,0.2-0.3,0.4-0.4,0.5
			c0,0.1-0.1,0.2-0.2,0.2c-0.2,0.1-0.3,0.5-0.2,0.5c0.1,0.2,0.2,0,0.7-0.7C72,63.3,72,63,71.6,63.4z M72.3,62.8
			c0-0.1-0.1-0.1-0.2-0.1c0,0-0.1,0-0.1,0.1C72,62.9,72.1,62.9,72.3,62.8C72.3,62.9,72.4,62.9,72.3,62.8z M76.3,56.9
			c-0.2,0.2-0.2,0.3-0.3,0.4c0,0.2-0.2,0.4-0.4,0.6c-0.5,0.5-0.4,0.4-0.5,0.3c-0.1,0,0.1-0.3,0.5-0.8c0.1-0.1,0.2-0.3,0.4-0.5
			c0.1-0.2,0.3-0.5,0.5-0.6c0.4-0.6,1-1.2,1.1-1.2c0.1,0.1-0.1,0.2-0.2,0.4c-0.2,0.2-0.4,0.5-0.6,0.8C76.6,56.5,76.4,56.8,76.3,56.9
			z M79.1,53.7C79.2,53.7,79.3,53.8,79.1,53.7c0.1,0.2,0,0.2-0.1,0.2c-0.1,0-0.2,0-0.3,0.2c-0.1,0.1-0.2,0.1-0.2,0.1
			C78.4,54,78.8,53.7,79.1,53.7z M79.3,55.1c-0.1,0-0.2,0.2-0.2,0.3c0,0.1-0.1,0.2-0.2,0.2c-0.1,0-0.2,0.1-0.2,0.2
			c0,0.2-0.1,0.3-0.2,0.3c-0.1,0.1-0.1-0.2,0-0.4c0.1-0.2,0.2-0.5,0.2-0.5c0.1,0,0.2-0.2,0.2-0.2c0.2-0.2,0.2-0.3,0.4-0.3
			C79.6,54.8,79.6,54.9,79.3,55.1z M80.2,52.1c0.1,0-0.3,0.6-0.5,0.8c-0.1,0-0.2,0.1-0.2,0C79.6,52.7,80.1,52.1,80.2,52.1z
			 M80.2,53.8C80,54,79.7,54,79.8,53.9c0-0.1,0.6-0.5,0.7-0.5C80.7,53.4,80.6,53.7,80.2,53.8z M81.2,51.1c-0.2,0.3-0.4,0.4-0.4,0.2
			c0.1-0.1,0.2-0.2,0.4-0.5C81.6,50.5,81.6,50.8,81.2,51.1z M81.7,52.2c0,0.2-0.3,0.4-0.5,0.4c-0.1,0,0-0.2,0.1-0.2
			C81.5,52.1,81.8,52.1,81.7,52.2z M81.7,50.5c0,0,0.1-0.2,0.2-0.3c0.2-0.2,0.3-0.3,0.3-0.4c0.1-0.1,0.1-0.2,0.2-0.1
			C82.5,49.8,82,50.5,81.7,50.5z M83.5,50.4c-0.2,0.2-0.4,0.3-0.4,0.5c-0.1,0.2-1,0.9-1,0.7c-0.1-0.1,0.4-0.5,0.7-0.5
			c0.1,0,0.2-0.1,0.2-0.2c0-0.2,0.1-0.3,0.4-0.5c0.2-0.2,0.4-0.4,0.5-0.5c0-0.1,0.1-0.2,0.2-0.2S83.9,50.1,83.5,50.4z M85.4,49.1
			c-0.1,0.2-0.5,0.7-0.7,0.7l-0.1-0.1c-0.1-0.1,0-0.2,0.2-0.2c0.1,0,0.2-0.2,0.4-0.3C85.4,49,85.4,49,85.4,49.1z M86.1,47.8
			c-0.1,0.2-0.2,0.2-0.2,0.2c0,0-0.2,0.1-0.3,0.3c-0.3,0.3-0.6,0.4-0.5,0.2c0-0.1,0.2-0.3,0.3-0.4c0.2-0.2,0.3-0.3,0.4-0.5
			c0.1-0.1,0.2-0.2,0.3-0.2c0,0,0.1-0.1,0.2-0.2c0.1-0.3,0.3-0.4,0.4-0.2c0.1,0.2,0.1,0.2-0.2,0.4C86.3,47.5,86.1,47.8,86.1,47.8z
			 M86.4,48.1c-0.1,0.2-0.5,0.8-0.7,0.8c0,0-0.1-0.1,0-0.2C85.8,48.5,86.5,47.9,86.4,48.1z M86.6,45.6c0.1-0.2,0.2-0.2,0.2-0.2
			c0.1,0,0.2-0.2,0.2-0.3c0-0.1,0.2-0.3,0.4-0.4c0.2-0.2,0.2-0.2,0.2,0c0,0.2-0.2,0.3-0.3,0.5c-0.2,0.2-0.4,0.3-0.4,0.4
			C86.8,45.8,86.6,45.8,86.6,45.6z M91.2,43.2c-0.3,0.2-0.7,0.5-0.7,0.5s-0.2,0.2-0.4,0.4c-0.2,0.2-0.4,0.3-0.5,0.4
			c-0.1,0.1-0.2,0.1-0.2,0c0-0.2-0.2-0.2-0.2,0.2c0,0.2-0.3,0.6-0.6,0.8c0,0-0.2,0.2-0.4,0.4c-0.5,0.5-1,0.9-1.2,0.9
			c-0.1,0-0.2-0.1-0.2-0.1c0-0.1,0.2-0.2,0.4-0.4c0.2-0.2,0.4-0.4,0.5-0.5c0-0.2,0.1-0.2,0.2-0.2c0.2-0.1,1-0.8,1.2-1.2
			c0.1-0.2,0.3-0.5,0.6-0.6c0.2-0.2,0.4-0.4,0.5-0.5c0.1-0.1,0.3-0.3,0.5-0.4c0.2-0.1,0.5-0.3,0.7-0.5c0.2-0.2,0.3-0.4,0.4-0.4
			c0.2,0,0,0.2-0.3,0.5c-0.4,0.3-0.4,0.4-0.1,0.2C91.9,42.6,91.9,42.8,91.2,43.2z M87.7,46.9c0,0.1-0.2,0.2-0.2,0.4
			c-0.2,0.2-0.2,0.2-0.2,0c0.1-0.1,0.2-0.2,0.2-0.2C87.4,47.1,87.5,47.1,87.7,46.9C87.7,46.8,87.7,46.8,87.7,46.9z M91,43.1
			c0.1-0.2,0-0.2-0.2,0.1c-0.2,0.2-0.2,0.2,0,0.2C90.9,43.3,91,43.2,91,43.1z M93.5,41.4c0.1,0.2-1.2,1-1.3,1
			c-0.1,0,0.1-0.2,0.5-0.5C93.1,41.7,93.4,41.5,93.5,41.4L93.5,41.4z M93.7,40.8c-0.1,0,0-0.1,0.2-0.2c0.2-0.2,0.3-0.2,0.4-0.2
			C94.3,40.3,93.8,40.8,93.7,40.8z M97.5,40.1c0,0.2-0.1,0.5-0.2,0.8l-0.2,0.5L97,41.1c-0.1-0.5-0.5-1.2-0.7-1.2
			c-0.1,0-0.1-0.1,0-0.2c0.2-0.3-0.5-0.3-1-0.1c-0.3,0.2-0.4,0.2-0.5,0.1c0-0.1-0.1-0.1-0.2,0c-0.2,0.2-0.6,0.2-0.4,0
			c0.2-0.1,0.9-0.4,1.2-0.4c0.2,0,0.2-0.1,0.3-0.1c0.2-0.2,1.2-0.2,1.3,0c0,0.1,0.2,0.1,0.3,0c0.2,0,0.2,0,0.2,0.3
			C97.5,39.8,97.4,40,97.5,40.1z M95.4,40.3c0,0-0.2,0.2-0.6,0.4c-0.3,0.2-0.7,0.4-0.7,0.3C94.1,40.9,95.2,40.2,95.4,40.3z"/>
		<path id="XMLID_3110_" d="M52.5,10.6c-5.3,0.9-10.4,2.8-15,5.5c-4.6,2.7-8.8,6.2-12.3,10.3c-3.5,4.1-6.2,8.8-8.1,13.9
			c-1.9,5.1-2.9,10.5-2.9,15.9c0,5.4,0.8,10.9,2.6,16c1.8,5.1,4.5,10,7.9,14.2c3.4,4.2,7.6,7.9,12.3,10.7c4.7,2.8,9.9,4.8,15.3,5.9
			c-5.4-1-10.7-2.9-15.4-5.6c-4.8-2.8-9.1-6.4-12.6-10.6c-3.6-4.2-6.4-9.1-8.3-14.3c-1.9-5.2-2.9-10.7-3-16.3
			c0-5.6,0.9-11.2,2.7-16.4c1.8-5.3,4.6-10.2,8.1-14.6c3.5-4.3,7.8-8.1,12.6-11c4.8-2.9,10.1-5,15.7-6.1c0.7-0.1,1.4,0.3,1.5,1
			C53.7,9.8,53.2,10.5,52.5,10.6C52.6,10.6,52.5,10.6,52.5,10.6z"/>
		<path id="XMLID_3109_" d="M70.3,8.1c5.5,1.1,10.9,3.2,15.7,6.1c4.8,2.9,9.1,6.7,12.6,11c3.5,4.3,6.3,9.3,8.1,14.6
			c1.8,5.3,2.8,10.9,2.7,16.4c-0.1,5.6-1.1,11.1-3,16.3c-1.9,5.2-4.8,10.1-8.3,14.3c-3.6,4.2-7.9,7.8-12.6,10.6
			c-4.8,2.8-10,4.7-15.4,5.6c5.4-1.1,10.6-3.1,15.3-5.9c4.7-2.8,8.9-6.5,12.3-10.7c3.4-4.2,6.1-9.1,7.9-14.2
			c1.8-5.1,2.7-10.6,2.6-16c-0.1-5.4-1.1-10.8-2.9-15.9c-1.9-5.1-4.6-9.8-8.1-13.9c-3.5-4.1-7.7-7.6-12.3-10.3
			c-4.6-2.7-9.7-4.6-15-5.5c-0.7-0.1-1.2-0.8-1-1.5C68.9,8.4,69.6,8,70.3,8.1C70.3,8.1,70.3,8.1,70.3,8.1z"/>
		<circle id="XMLID_3092_" cx="61.2" cy="8.5" r="2.5"/>
		<circle id="XMLID_3091_" cx="61.2" cy="103.8" r="1.3"/>
	</g>
</g>
<g id="DESIGNED_BY_FREEPIK">
</g>
</svg>
